<?xml version="1.0" encoding="UTF-8"?>
<svg xmlns="http://www.w3.org/2000/svg" viewBox="0 0 430.67 430.67">
  <defs>
    <style>
      .cls-1 {
        fill: #d1b7b3;
      }

      .cls-1, .cls-2, .cls-3, .cls-4, .cls-5, .cls-6, .cls-7, .cls-8, .cls-9, .cls-10, .cls-11, .cls-12, .cls-13, .cls-14, .cls-15, .cls-16, .cls-17 {
        stroke-width: 0px;
      }

      .cls-2 {
        fill: #adc3c5;
      }

      .cls-3 {
        fill: #322b29;
      }

      .cls-4 {
        fill: #deaeac;
      }

      .cls-5 {
        fill: #e6a8a7;
      }

      .cls-6 {
        fill: #a3adda;
      }

      .cls-7 {
        fill: #86b3df;
      }

      .cls-8 {
        fill: none;
      }

      .cls-9 {
        fill: #68bfe0;
      }

      .cls-10 {
        fill: #aba4db;
      }

      .cls-11 {
        fill: #9ac4cd;
      }

      .cls-12 {
        fill: #96b6d9;
      }

      .cls-13 {
        fill: #78b8e1;
      }

      .cls-14 {
        fill: #bbc0be;
      }

      .cls-15 {
        fill: #fff;
      }

      .cls-16 {
        fill: #86bfd9;
      }

      .cls-17 {
        fill: #c6bcb9;
      }
    </style>
  </defs>
  <g id="_图层_2" data-name="background">
    <circle class="cls-16" cx="215.33" cy="215.33" r="215.33"/>
    <circle class="cls-3" cx="215.33" cy="215.33" r="206.07"/>
  </g>
  <g id="_图层_2_图像" data-name="colorduck">
    <path class="cls-16" d="M279.6,79.1c1.14.22,2.24.61,3.33,1,2.75.98,5.42,2.17,7.99,3.56.95.51,1.89,1.04,2.8,1.61,1.57.97,3.11,1.98,4.57,3.1,1.19.91,2.36,1.85,3.49,2.84,2.47,2.18,4.74,4.56,7.02,6.92,1.46,1.51,2.74,3.17,3.98,4.87,2.18,2.98,4.08,6.14,5.65,9.48,1.47,3.1,2.65,6.31,3.56,9.63.43,1.58.8,3.18,1.1,4.8.25,1.39.49,2.78.61,4.19.06.68.15,1.35.17,2.03,0,.25.12.42.35.54.57.27,1.06.65,1.51,1.08.35.34.82.5,1.3.58.45.08.87.24,1.3.38.67.21,1.37.36,2.08.33.66-.02,1.29.08,1.92.3.89.31,1.81.43,2.74.52.37.04.74.04,1.08.21.21.1.43.13.66.13.71,0,1.41.07,2.12.02.45-.03.91-.04,1.35.08.17.04.33.02.5,0,.28-.04.57-.09.84-.06.73.08,1.45.08,2.18,0,.53-.06,1.08.03,1.6-.16.05-.02.11-.02.17-.02,1.08.08,2.14-.22,3.21-.19.47.02.89-.14,1.34-.22.45-.08.89-.14,1.34-.01.2.05.39.07.59,0,.53-.17,1.07-.12,1.6-.11.34,0,.68-.02,1.02.01.87.08,1.67-.26,2.5-.42.25-.05.5-.09.76-.08.31,0,.62,0,.92-.12.1-.04.22-.07.33-.06.81.03,1.58-.16,2.33-.41.5-.16,1.02-.01,1.51-.21.48-.19.98-.28,1.5-.26.21,0,.38-.08.57-.15.29-.11.59-.24.89-.27.58-.06,1.08-.31,1.61-.5,3.02-1.1,5.81.85,6.32,3.4.05.26.15.47.32.67.7.79,1.05,1.74,1.18,2.77.03.28,0,.57-.04.84-.16.93-.16,1.85.14,2.76.13.4.23.83.23,1.25,0,.49.11.95.23,1.42.11.39.19.78.13,1.18-.12.85.05,1.69.02,2.53,0,.22-.04.46.17.63v2.72c-.1.06-.16.16-.16.28,0,.28-.02.57,0,.85.03.61-.08,1.19-.35,1.73-.12.23-.17.48-.16.74,0,.43-.11.85-.26,1.24-.16.41-.25.81-.25,1.24,0,.52-.17,1-.39,1.46-.16.33-.31.66-.37,1.03-.14.89-.56,1.66-1.11,2.36-.1.13-.24.26-.29.41-.22.66-.6,1.21-.99,1.77-.16.23-.2.53-.35.77-.4.62-.72,1.27-.98,1.97-.06.16-.17.29-.27.43-.25.38-.51.75-.61,1.2-.03.14-.1.26-.18.39-.35.58-.61,1.2-.81,1.85-.16.52-.48.96-.86,1.35-.29.28-.51.6-.68.96-.23.49-.53.94-.94,1.3-.34.3-.59.69-.9,1.01-.85.86-1.55,1.86-2.48,2.66-.66.56-1.17,1.3-1.89,1.81-.37.59-.87,1.04-1.43,1.44-.2.14-.33.38-.49.58-.29.35-.55.72-1.01.88-.04-.1-.05-.26-.12-.3-.31-.19-.47-.5-.64-.78-.21-.34-.5-.6-.73-.9-.53-.68-1.1-1.34-1.6-2.05-.37-.53-.74-1.05-1.16-1.55-.51-.59-1.06-1.18-1.21-1.99.21-.23.44-.45.62-.7.28-.4.61-.74,1.01-1.02.21-.15.41-.32.55-.52.35-.49.74-.93,1.25-1.25.09-.06.17-.15.24-.24.57-.81,1.34-1.44,1.96-2.21.76-.94,1.63-1.8,2.19-2.89.14-.28.3-.54.37-.85.05-.22.13-.44.24-.63.41-.74.87-1.45,1.14-2.26.08-.23.27-.43.4-.65.09-.14.19-.29.23-.45.13-.57.43-1.05.75-1.51.18-.26.35-.52.47-.8.23-.52.54-.99.88-1.45.37-.5.63-1.08.78-1.68.12-.47.22-.93.38-1.39.08-.24.14-.49.13-.75-.01-.49.12-.95.29-1.4.11-.29.24-.57.24-.9,0-.31.08-.61.14-.92.12-.67.15-1.37,0-2.03-.14-.59-.19-1.18-.14-1.77.08-.8-.09-1.58-.18-2.36-.08-.69-.3-1.37-.35-2.08-.03-.43-.1-.97-.47-1.22-.31-.21-.77-.03-1.16-.01-.22.01-.44.11-.66.17-.49.14-.99.24-1.5.27-.2.01-.4.02-.58.08-.63.21-1.27.26-1.92.31-.92.07-1.85.21-2.75.42-.76.18-1.5.25-2.27.23-.93-.03-1.87,0-2.8,0-.11,0-.23,0-.34.04-.39.13-.78.11-1.18.11-.2,0-.41-.02-.59.03-.61.19-1.23.17-1.85.17-.17,0-.35-.02-.51.03-.53.16-1.07.14-1.6.14-.28,0-.56.02-.84.08-.69.16-1.38.31-2.09.09-.3-.09-.62-.06-.93.03-.42.12-.84.11-1.26,0-.16-.05-.34-.06-.51-.06-1.02,0-2.04-.01-3.06,0-.68.01-1.36.03-2.01-.23-.25-.1-.5-.1-.75-.1-.85-.02-1.68-.19-2.52-.31-.22-.03-.46-.05-.66-.14-.85-.36-1.75-.42-2.66-.45-.81-.03-1.64-.11-2.34-.63,0-.22-.08-.39-.27-.49-.29-.15-.5-.36-.63-.66-.15-.35-.38-.62-.73-.8-.2-.1-.34-.28-.41-.52-.04-.13-.12-.25-.19-.37-.39-.65-.99-1.13-1.35-1.82-.29-.56-.81-1-1.26-1.47-.3-.31-.58-.6-.7-1.04-.04-.16-.16-.3-.26-.43-.68-.86-1.39-1.7-2.04-2.59-.27-.37-.63-.66-.83-1.07-.34-.67-.86-1.18-1.34-1.74-.22-.26-.46-.49-.64-.79-.22-.36-.46-.71-.79-.99-.11-.09-.22-.2-.27-.33-.19-.5-.57-.84-.93-1.2-.24-.24-.46-.47-.5-.85-.04-.33-.3-.53-.66-.55-.05-.1-.11-.19-.14-.3-.26-.87-.5-1.74-.78-2.6-.52-1.56-1.09-3.09-1.73-4.61-.96-2.27-2.07-4.47-3.3-6.6-1.32-2.28-2.79-4.46-4.41-6.54-.91-1.16-1.83-2.3-2.83-3.38-1.58-1.71-3.37-3.19-5.2-4.61-.33-.26-.72-.45-.98-.8.01-.27-.01-.52-.29-.66-.36-.18-.54-.47-.64-.85-.06-.22-.18-.43-.37-.56-.57-.37-.89-.92-1.24-1.47-.26-.4-.53-.81-.87-1.14-.47-.46-.84-.99-1.25-1.49-.3-.36-.62-.73-.81-1.19-.11-.26-.27-.51-.47-.7-.42-.39-.72-.87-1.09-1.3-.41-.46-.79-.96-1.14-1.47-.74-1.1-1.58-2.13-2.45-3.13-.09-.11-.2-.21-.26-.34-.32-.71-.93-1.21-1.4-1.8-.35-.44-.69-.9-1.04-1.34-.25-.31-.35-.64-.29-1.02Z"/>
    <path class="cls-4" d="M159.41,354.06c-.23-.26-.57-.24-.86-.29-2.56-.47-5.07-1.12-7.58-1.78-1.78-.47-3.52-1.03-5.28-1.55-2.28-.67-4.5-1.51-6.73-2.33-1.3-.48-2.58-1.01-3.86-1.53-.31-.13-.6-.31-.9-.47q.28-1.05-.5-1.84c-.36-.36-.74-.7-.87-1.23-.02-.07-.08-.15-.15-.19-.31-.18-.46-.49-.66-.76-.22-.29-.42-.62-.7-.84-.35-.28-.55-.73-.99-.9-.07-.03-.13-.12-.15-.2-.16-.59-.55-1.04-.86-1.54-.45-.73-.96-1.39-1.57-1.98-.29-.28-.53-.58-.69-.95-.09-.2-.18-.44-.34-.58-.55-.45-.86-1.11-1.38-1.57-.36-.32-.37-.83-.67-1.16-.3-.33-.75-.51-1.01-.89-.35-.51-.77-.98-1-1.56-.2-.52-.55-.92-1.02-1.21-.32-.19-.56-.48-.81-.74-.27-.27-.42-.6-.38-1,.08.02.17.03.24.08,1.42.88,2.84,1.74,4.28,2.59,1.83,1.08,3.7,2.08,5.57,3.07,1.32.7,2.68,1.35,4.04,1.98,1.75.81,3.49,1.61,5.27,2.35,2.38.99,4.78,1.91,7.21,2.76,1.97.69,3.96,1.34,5.98,1.9.49.14.97.31,1.45.46.03.73.51,1.25.9,1.78.67.93,1.43,1.81,2.16,2.69.91,1.11,1.71,2.3,2.58,3.44.63.83,1.35,1.58,1.85,2.51.05.1.15.17.23.25.35.34.5.74.46,1.22h-3.23Z"/>
    <path class="cls-4" d="M55.54,241.94c-.19-.57-.24-1.15-.3-1.74-.1-1.04-.21-2.08-.31-3.12-.01-.11-.02-.23-.02-.34-.02-1.58-.27-3.16-.21-4.75,0-.11-.01-.23-.04-.33-.04-.13-.16-.14-.27-.16v-4.77c.17-.05.28-.18.36-.33.35-.69.57-1.42.66-2.18.04-.35.14-.66.3-.96.13-.25.27-.5.38-.76.14-.32.33-.59.59-.82.11-.09.21-.19.3-.3.45-.52.94-.97,1.58-1.26.73-.34,1.28-.92,1.92-1.39.22-.05.44-.11.66-.14.14-.02.31-.01.39.11.21.34.61.52.81.84.58.91,1.15,1.81,1.94,2.56.02.02.04.04.05.07.21.51.59.89.93,1.31.56.71,1,1.5,1.67,2.13.45.42.68.97.56,1.61-.69.49-1.19,1.12-1.36,1.98-.04.22-.14.43-.22.64-.09.24-.14.49-.13.75.04.8-.12,1.57-.24,2.35-.12.78-.18,1.56-.46,2.3-.16.44,0,.89-.1,1.34-.08.36-.07.73.05,1.09.09.28.08.55,0,.83-.17.62-.14,1.23.08,1.83.07.19.14.38.14.57,0,.55.17,1.06.3,1.58.19.79.48,1.57.43,2.41-.04.58.12,1.12.34,1.64.13.31.25.63.31.96.53,2.74,1.22,5.45,1.94,8.15.25.92.5,1.85.76,2.77-.22,0-.35-.15-.5-.29-.94-.87-1.64-1.93-2.3-3.01-.12-.19-.2-.42-.35-.57-.54-.5-1.02-1.03-1.32-1.71-.05-.12-.16-.25-.28-.31-.52-.26-.75-.74-.98-1.23-.14-.29-.38-.49-.6-.7-.48-.48-.94-.97-1.3-1.55-.25-.4-.57-.77-.88-1.13-.6-.71-1.18-1.43-1.65-2.23-.17-.29-.3-.65-.59-.81-.63-.34-.87-1.03-1.38-1.47-.19-.62-.74-.99-1.11-1.48-.17-.23-.21-.22-.54.04Z"/>
    <path class="cls-1" d="M162.65,354.06c.04-.48-.11-.89-.46-1.22-.08-.08-.18-.15-.23-.25-.5-.92-1.22-1.68-1.85-2.51-.87-1.14-1.66-2.34-2.58-3.44-.73-.89-1.49-1.76-2.16-2.69-.38-.53-.87-1.05-.9-1.78.6.16,1.2.32,1.8.47,2.68.68,5.37,1.31,8.08,1.85.97.19,1.95.35,2.93.37,1.73.03,3.45,0,5.18,0,.31,0,.63-.14.92-.09.85.16,1.69.02,2.54.09.24.51.51,1.02.96,1.38.41.32.71.72.91,1.19.17.4.42.74.76,1,.37.28.61.64.86,1.02.32.49.67.97,1.06,1.41.32.36.61.74.88,1.13.19.28.34.59.58.83.27.28.31.58.29.93-.66.21-1.34.13-2.02.13-3.75.01-7.5.02-11.25.03-1.47,0-2.94,0-4.41,0-.25,0-.52-.07-.71.17h-1.19Z"/>
    <path class="cls-17" d="M182.22,353.74c.02-.35-.02-.65-.29-.93-.23-.24-.38-.55-.58-.83-.27-.39-.55-.77-.88-1.13-.39-.43-.74-.92-1.06-1.41-.25-.38-.49-.74-.86-1.02-.34-.26-.59-.6-.76-1-.2-.47-.5-.87-.91-1.19-.45-.35-.72-.86-.96-1.38.19-.18.42-.14.64-.14,3.65,0,7.3,0,10.94,0,.79,0,1.58,0,2.37,0,.22,0,.45-.03.67-.08.37-.09.72-.1,1.09,0,.36.11.74.13,1.09.04.51-.14,1-.13,1.5.01.19.05.39.03.59.05.01.14.05.28.16.38.38.35.63.79.92,1.21.43.63.8,1.3,1.4,1.8.1.09.18.22.25.34.51.78,1,1.56,1.64,2.25.32.35.58.76.83,1.17.14.22.28.4.51.55.42.27.71.64.78,1.16-.08.03-.15.08-.23.08-.14-.01-.27-.06-.41-.09-.4-.09-.78.19-1.16.09-.37-.1-.72-.1-1.08.03-.08.03-.17.04-.25.02-.81-.24-1.61.06-2.43,0-.81-.05-1.63,0-2.45,0-.82,0-1.64,0-2.45,0-.82,0-1.64,0-2.45,0-.17,0-.34,0-.51.02-.16.03-.22.15-.2.31h-.34c.01-.07-.01-.12-.09-.12s-.1.05-.09.12h-1.02c-.26-.25-.42-.25-.68,0h-.85c-.07-.15-.19-.18-.34-.18-.47,0-.94,0-1.42,0-.22,0-.45.04-.63-.14Z"/>
    <path class="cls-15" d="M182.22,353.74c.18.18.41.14.63.14.47,0,.94,0,1.42,0,.15,0,.27.04.34.18h-15.66c0-.05,0-.11.01-.16,3.75-.01,7.5-.02,11.25-.03.67,0,1.35.08,2.02-.13Z"/>
    <path class="cls-2" d="M266.32,76.6c0,.06-.02.12-.03.18-3.05,0-6.11,0-9.16,0-.56,0-1.13,0-1.69,0,0-.06,0-.11-.01-.17,3.63,0,7.26,0,10.89,0Z"/>
    <path class="cls-17" d="M168.96,353.9c-.01.05-.02.11-.01.16h-5.11c.19-.24.46-.17.71-.17,1.47,0,2.94,0,4.41,0Z"/>
    <path class="cls-15" d="M185.46,354.06c.26-.25.42-.25.68,0h-.68Z"/>
    <path class="cls-15" d="M187.16,354.06c-.01-.07.01-.12.09-.12s.1.05.09.12h-.17Z"/>
    <path class="cls-10" d="M204.01,110.99c0-.2.08-.38.18-.56,1.11-1.94,2.19-3.9,3.47-5.74.29-.42.51-.88.76-1.33.26-.47.48-.96.9-1.33.13-.11.22-.26.31-.4.84-1.4,1.89-2.63,3.11-3.69,1.63-1.41,3.11-2.97,4.65-4.48,1.94-1.91,4.02-3.66,6.2-5.29,1.89-1.41,3.86-2.68,5.9-3.85,1.87-1.08,3.79-2.05,5.79-2.86.47-.19.92-.44,1.42-.57,0,.2.05.38.16.55.53.83,1.26,1.51,1.72,2.39.01.02.04.04.06.06.7.9,1.57,1.67,2.16,2.66.16.26.34.52.56.73.74.7,1.3,1.55,2.01,2.26-.16.17-.39.23-.6.31-1.85.7-3.69,1.46-5.46,2.35-.76.38-1.5.8-2.25,1.19-1.23.64-2.43,1.35-3.58,2.12-1.53,1.01-3.1,1.97-4.4,3.3-.39.4-.88.7-1.31,1.07-.62.54-1.28,1.03-1.85,1.62-1.12,1.16-2.28,2.29-3.43,3.43-.12.12-.25.23-.35.37-.95,1.31-1.91,2.6-2.82,3.93-1.06,1.54-2.04,3.13-2.94,4.78-.83,1.52-1.61,3.06-2.3,4.65-.2.47-.34.96-.68,1.36-.61-.59-1.13-1.25-1.56-1.98-.1-.17-.21-.34-.35-.48-.56-.55-.91-1.3-1.57-1.76-.09-.06-.12-.19-.19-.28-.43-.59-.78-1.24-1.33-1.75-.2-.19-.35-.44-.48-.69-.29-.56-.66-1.04-1.02-1.55-.24-.33-.52-.5-.89-.56Z"/>
    <path class="cls-13" d="M213.53,203.01c.93-.22,1.83-.57,2.8-.63.13,0,.27-.09.4-.14.42-.17.85-.29,1.3-.38.72-.15,1.43-.35,2-.86.13-.11.27-.21.42-.29.75-.4,1.27-1.03,1.69-1.75.75-1.28,1.38-2.6,1.71-4.05.12-.54.15-1.06,0-1.59-.05-.16-.07-.33-.12-.5-.36-1.32-.38-1.33-1.46-2.17-.98-.76-1.93-1.57-2.87-2.4-.85-.75-1.66-1.55-2.47-2.33-.53-.51-1.01-1.06-1.4-1.7-.86-1.4-1.99-2.53-3.42-3.36-.19-.11-.4-.23-.55-.4-.3-.36-.69-.59-1.08-.81-.3-.17-.57-.37-.81-.61-.18-.18-.37-.35-.58-.5-.26-.19-.47-.4-.64-.67-.05-.07-.08-.15-.15-.21-.83-.67-1.12-1.68-1.58-2.57-.29-.55-.53-1.13-.79-1.69-.04-.08-.06-.17-.12-.23-.69-.76-.83-1.77-1.23-2.67-.33-.75-.6-1.53-.96-2.26-1.23-2.49-2.28-5.06-3.15-7.7-.61-1.85-1.09-3.75-1.54-5.65-.08-.33-.09-.67-.13-1.01.25-.02.47.05.6.26.41.65.96,1.18,1.41,1.8.48.66.99,1.3,1.41,2,.03.05.07.09.11.13.39.41.83.77,1.04,1.33.04.09.14.18.24.23.22.11.32.3.46.48.79.99,1.55,2.01,2.26,3.06.24.36.6.61.82.97.57.91,1.34,1.67,1.95,2.56.62.9,1.41,1.68,1.96,2.65.07.12.18.21.28.32.2.2.35.45.54.65.55.57.93,1.28,1.44,1.88.49.58.88,1.25,1.44,1.77.06.06.09.14.14.21.61,1.09,1.63,1.87,2.23,2.97.04.07.12.12.17.19.12.16.25.31.35.48.35.59.74,1.13,1.23,1.61.31.3.59.61.8.98.17.3.39.55.63.8.16.16.29.35.41.53.39.59.76,1.18,1.27,1.69.31.31.59.68.86,1.04.88,1.21,1.65,2.5,2.74,3.55.14.13.22.33.34.49.37.53.75,1.05,1.17,1.56.39.48.86.9,1.17,1.44.33.59.7,1.16,1.23,1.61.1.09.18.22.23.35.15.35.39.62.66.87.14.14.31.27.41.43.48.84,1.1,1.57,1.71,2.31.3.36.56.8,1.08.91.08.46-.16.89-.12,1.35.07.8-.06,1.58-.24,2.36-.2.91-.38,1.84-.94,2.62-.36.5-.73,1.01-1.12,1.49-.23.28-.51.54-.8.75-.28.2-.54.41-.76.67-.46.52-1,.91-1.64,1.18-.26.11-.5.26-.72.44-.78.63-1.63,1.11-2.65,1.24-.19.02-.38.11-.57.17-.16.05-.32.13-.48.14-.76.07-1.48.35-2.22.52-.61.14-1.21.26-1.82.37,0-.21-.09-.4-.25-.52-.5-.35-.8-.86-1.1-1.37-.15-.25-.36-.44-.56-.64-.32-.32-.62-.64-.83-1.06-.18-.37-.39-.75-.8-.96-.11-.06-.17-.22-.25-.33-.11-.17-.18-.36-.31-.5-.58-.62-1.04-1.33-1.51-2.03-.18-.26-.34-.52-.37-.84Z"/>
    <path class="cls-7" d="M233.6,197.97c-.52-.11-.78-.54-1.08-.91-.61-.74-1.23-1.47-1.71-2.31-.1-.17-.26-.3-.41-.43-.27-.26-.51-.53-.66-.87-.05-.13-.13-.26-.23-.35-.53-.45-.89-1.02-1.23-1.61-.31-.55-.78-.97-1.17-1.44-.41-.5-.79-1.03-1.17-1.56-.11-.16-.2-.35-.34-.49-1.09-1.05-1.86-2.34-2.74-3.55-.27-.36-.55-.73-.86-1.04-.51-.51-.88-1.1-1.27-1.69-.12-.19-.26-.37-.41-.53-.24-.25-.46-.5-.63-.8-.21-.37-.49-.69-.8-.98-.49-.47-.89-1.02-1.23-1.61-.1-.17-.23-.32-.35-.48-.05-.07-.13-.11-.17-.19-.6-1.1-1.62-1.89-2.23-2.97-.04-.07-.08-.16-.14-.21-.57-.52-.96-1.19-1.44-1.77-.51-.61-.89-1.31-1.44-1.88-.19-.2-.35-.44-.54-.65-.1-.1-.22-.19-.28-.32-.55-.96-1.34-1.74-1.96-2.65-.61-.89-1.38-1.65-1.95-2.56-.23-.36-.58-.61-.82-.97-.71-1.05-1.48-2.06-2.26-3.06-.14-.18-.24-.37-.46-.48-.1-.05-.2-.14-.24-.23-.21-.56-.65-.92-1.04-1.33-.04-.04-.08-.08-.11-.13-.42-.7-.92-1.34-1.41-2-.45-.61-1-1.15-1.41-1.8-.13-.2-.35-.28-.6-.26-.26-.55-.31-1.14-.4-1.72-.23-1.5-.48-3.01-.57-4.53-.03-.48-.17-.94-.11-1.43.18-.25.18-.26-.01-.49,0-.39-.02-.78-.03-1.17-.03-.06-.06-.12-.08-.19-.07-.97-.08-1.93,0-2.9.21-.02.39.03.54.18.53.54,1.12,1.04,1.51,1.71.13.22.27.43.46.6.38.35.64.78.89,1.22.08.15.15.32.26.43.6.56,1.05,1.24,1.55,1.89.77,1,1.65,1.92,2.24,3.05.05.1.13.19.21.26.44.4.75.91,1.11,1.38.71.91,1.41,1.82,2.14,2.71.27.33.55.63.76,1.01.21.39.49.76.98.86.05.1.11.2.15.3.49,1.42,1.06,2.8,1.66,4.18,1.59,3.65,3.59,7.06,5.87,10.31.17.24.34.46.65.5.26.04.39.21.49.42.17.39.42.73.73,1.03.61.59,1.22,1.18,1.72,1.87.18.25.41.47.69.62.68.37,1.25.86,1.72,1.47.21.27.47.49.79.64.87.4,1.52,1.07,2.08,1.83.22.3.47.57.78.77.24.15.46.33.65.54.25.28.57.47.91.61.49.21.93.47,1.33.86.45.44.87.9,1.22,1.4.45.65.97,1.25,1.44,1.88.25.33.41.68.44,1.08.04.71.09,1.41.2,2.11.13.83.22,1.68.3,2.52.08.81.12,1.63.18,2.45.05.6-.08,1.18-.12,1.77-.04.72-.24,1.39-.56,2.02Z"/>
    <path class="cls-9" d="M213.53,203.01c.03.32.19.58.37.84.48.7.94,1.41,1.51,2.03.13.14.2.34.31.5.08.12.14.28.25.33.41.21.62.59.8.96.21.42.51.74.83,1.06.2.2.4.39.56.64.3.5.61,1.01,1.1,1.37.17.12.25.3.25.52-.71.29-1.45.45-2.19.61-.66.15-1.29.43-1.98.44-.69.35-1.47.39-2.21.58-.76.2-1.52.45-2.3.57-.56.08-1.11.22-1.65.39-.83.27-1.69.43-2.54.63-.66.16-1.32.31-1.97.48-.77.2-1.52.45-2.29.61-1.19.24-2.36.57-3.54.83-1.02.23-2.02.51-3.04.75-.52.12-1.07.19-1.56.38-.75.29-1.54.35-2.3.6-.88.29-1.81.41-2.72.61-.23.02-.42-.21-.65-.1-.22.1-.38.02-.53-.14-.18-.18-.4-.34-.53-.55-.29-.47-.69-.82-1.05-1.21-.13-.14-.24-.31-.35-.47-.57-.8-1.07-1.66-1.79-2.35-.1-.1-.18-.22-.24-.35-.15-.34-.41-.6-.65-.88-.37-.42-.75-.84-.86-1.43.38-.33.85-.45,1.32-.51.51-.06,1.01-.15,1.47-.38.03-.01.05-.02.08-.03.51-.18,1.06-.19,1.57-.33.51-.13.98-.42,1.53-.48.45-.05.89-.14,1.3-.36.05-.03.1-.05.16-.06.55-.11,1.12-.17,1.65-.35.53-.19,1.06-.39,1.62-.46.39-.05.77-.15,1.15-.27.4-.14.82-.24,1.23-.3.28-.04.55-.12.81-.22.48-.19.96-.34,1.48-.35.2,0,.39-.06.57-.14.15-.07.31-.14.47-.18,1.09-.29,2.18-.56,3.27-.85.68-.18,1.35-.4,2.03-.59.6-.16,1.2-.34,1.81-.44.76-.12,1.45-.45,2.21-.56.46-.07.92-.25,1.38-.37.77-.19,1.52-.43,2.28-.64.52-.14,1.04-.24,1.57-.36Z"/>
    <path class="cls-1" d="M67.49,227.21c.11-.64-.11-1.19-.56-1.61-.67-.63-1.11-1.43-1.67-2.13-.33-.42-.71-.8-.93-1.31-.01-.03-.03-.05-.05-.07-.79-.75-1.36-1.65-1.94-2.56-.21-.32-.6-.5-.81-.84-.08-.12-.25-.13-.39-.11-.22.04-.44.09-.66.14.07-.27.26-.42.5-.55.38-.2.78-.34,1.19-.46.65-.2,1.26-.47,1.8-.91.83-.69,1.82-1.01,2.92-.96.2,0,.4,0,.6.02.49.03.98-.04,1.4-.27.95-.51,1.97-.46,2.99-.4.34.02.66.15.97.29.29.14.56.15.89.11.89-.12,1.75.09,2.53.52.5.27.97.57,1.55.66.57.09,1,.54,1.53.72.51.17,1.05.26,1.51.54.36.23.75.38,1.16.49.49.13.98.29,1.34.69.12.74.44,1.4,1.01,1.89.31.27.53.57.7.93.15.31.29.62.62.78.39.19.57.52.71.91.05.13.09.31.18.37.65.35.97.99,1.37,1.55.32.46.71.87.98,1.37.25.47.56.92.97,1.27.68.58,1.11,1.35,1.6,2.07.41.61.8,1.23,1.35,1.73.3.28.4.6.36.99-.45-.06-.91-.13-1.3-.35-.62-.35-1.28-.58-1.96-.78-.27-.08-.54-.19-.77-.34-.29-.2-.61-.29-.93-.39-.19-.06-.39-.09-.57-.17-.67-.29-1.27-.74-2.02-.84-.03,0-.05-.02-.08-.03-.68-.35-1.38-.64-2.1-.89-.77-.26-1.47-.72-2.28-.9-.24-.05-.48-.19-.68-.34-.26-.19-.55-.31-.85-.37-.46-.09-.86-.28-1.26-.49-.9-.48-1.93-.66-2.8-1.21-.07-.04-.17-.03-.25-.06-.69-.27-1.4-.44-2.15-.34-.05,0-.12,0-.17-.02-.72-.27-1.46-.14-2.19-.14-.74,0-1.38.26-1.95.72-.46.37-.93.73-1.39,1.1Z"/>
    <path class="cls-17" d="M93.19,233.05c.04-.39-.06-.71-.36-.99-.54-.5-.93-1.12-1.35-1.73-.49-.72-.93-1.49-1.6-2.07-.41-.35-.72-.8-.97-1.27-.27-.5-.66-.91-.98-1.37-.4-.57-.71-1.2-1.37-1.55-.1-.05-.14-.24-.18-.37-.13-.39-.32-.72-.71-.91-.33-.16-.48-.47-.62-.78-.17-.36-.39-.66-.7-.93-.57-.49-.88-1.15-1.01-1.89.78.16,1.55.34,2.21.81.21.15.46.21.71.27.33.08.67.17.95.34.46.29.94.5,1.47.62.11.02.23.05.32.1.72.39,1.49.65,2.24.96.7.29,1.41.56,2.12.86.7.29,1.4.57,2.12.82.27.09.51.24.76.37.3.16.6.31.94.36.22.03.46.09.64.21.66.46,1.44.62,2.18.9.21.08.41.19.6.31.22.14.42.27.69.29.17.01.34.06.48.15.97.59,2.11.78,3.1,1.33.32.18.65.35,1.02.39.08,0,.16.04.24.08.8.32,1.56.75,2.38,1.05-.05.3.06.53.27.76.42.45.84.91,1.19,1.41.63.89,1.3,1.76,1.97,2.62.9,1.14,1.76,2.32,2.65,3.48.15.2.2.4.19.63-.84.54-1.76.76-2.74.58-.47-.09-.89-.07-1.32.11-.44.18-.9.31-1.39.34-.99.06-1.91-.11-2.77-.63-.34-.2-.7-.35-1.1-.44-.41-.08-.81-.24-1.16-.5-.21-.15-.43-.27-.69-.32-.59-.1-1.14-.33-1.64-.67-.39-.26-.86-.26-1.28-.42-.45-.18-.8-.54-1.29-.63-.53-.11-1.02-.32-1.5-.58-.37-.2-.75-.38-1.18-.46-.38-.08-.76-.22-1.09-.46-.28-.21-.6-.29-.93-.38-.57-.16-1.15-.31-1.56-.8Z"/>
    <path class="cls-6" d="M243.37,89.55c-.71-.71-1.27-1.57-2.01-2.26-.22-.21-.41-.47-.56-.73-.59-.99-1.46-1.76-2.16-2.66-.02-.02-.04-.04-.06-.06-.46-.88-1.19-1.56-1.72-2.39-.11-.18-.16-.35-.16-.55.26-.12.5-.26.77-.35,2.47-.88,4.96-1.7,7.52-2.3,1.76-.41,3.52-.76,5.32-.98,1.06-.13,2.12-.28,3.19-.36.65-.05,1.29-.14,1.94-.13.56,0,1.13,0,1.69,0,.02.14,0,.3.06.41.18.35.39.68.61,1.01.24.38.48.77.9.98.1.05.19.13.24.23.29.52.73.93,1.05,1.42.52.8,1.29,1.41,1.71,2.29.05.1.14.17.23.24.33.28.55.64.76,1,.22.37.46.7.72,1.03.24.29.55.58.52,1.03-.79-.11-1.58-.11-2.37-.13-1.62-.05-3.23.02-4.83.23-1.62.21-3.24.44-4.85.78-2.49.52-4.97,1.11-7.37,1.96-.37.13-.76.2-1.14.3Z"/>
    <path class="cls-2" d="M121.79,227.08c.48-.32,1.02-.47,1.59-.5.32-.02.63-.05.88-.25.3-.24.65-.33,1-.43.71-.2,1.4-.46,2.12-.58.67-.12,1.3-.36,1.97-.49.8-.16,1.58-.43,2.37-.66.19-.06.37-.15.57-.14.29,0,.56-.1.83-.18.7-.22,1.44-.3,2.11-.61.14-.07.33-.04.5-.04.74-.04,1.46-.16,2.15-.42.43-.16.85-.3,1.32-.3.17,0,.35-.03.49-.1.69-.36,1.43-.53,2.2-.59.11,0,.22-.07.32-.1.02.26.13.5.31.68.45.47.68,1.1,1.17,1.54.5.44.7,1.14,1.3,1.52.22.14.31.46.47.69.19.28.37.56.59.82.69.81,1.41,1.6,1.95,2.53.08.14.21.18.35.2-.15.24-.39.29-.65.33-.75.12-1.51.19-2.21.52-.25.12-.54.16-.82.17-.19,0-.41.01-.58.1-.56.29-1.17.41-1.78.51-.34.06-.66.17-.97.28-.45.16-.91.32-1.4.31-.2,0-.39.06-.57.15-.41.2-.83.34-1.28.41-.5.07-.99.17-1.46.41-.27.13-.58.21-.9.22-.86.03-1.64.32-2.34.82-.13.09-.31.16-.47.17-.68.06-1.3.35-1.97.48-.97.18-1.91.47-2.86.72-.11.03-.22.02-.34.03-.28-.39-.56-.77-.83-1.16-.53-.75-.97-1.58-1.76-2.13-.11-.07-.16-.23-.24-.34-.09-.14-.17-.3-.28-.42-.51-.56-.94-1.19-1.36-1.82-.25-.37-.49-.75-.83-1.06-.36-.33-.55-.77-.66-1.25Z"/>
    <path class="cls-6" d="M204.01,110.99c.38.06.66.23.89.56.36.51.74.99,1.02,1.55.13.25.28.51.48.69.55.51.9,1.16,1.33,1.75.07.09.1.22.19.28.66.46,1.01,1.21,1.57,1.76.14.14.25.31.35.48.43.73.95,1.39,1.56,1.98-.05.31-.15.6-.27.89-.23.55-.44,1.1-.63,1.66-1,2.82-1.79,5.7-2.36,8.63-.21,1.1-.38,2.22-.54,3.33-.1.7-.14,1.4-.22,2.1,0,.08-.07.15-.11.22-.1-.04-.26-.05-.3-.13-.3-.63-.84-1.06-1.3-1.55-.12-.12-.22-.26-.3-.4-.35-.65-.81-1.22-1.33-1.74-.14-.14-.29-.29-.36-.46-.17-.41-.47-.7-.76-1-.16-.16-.31-.33-.43-.52-.6-.92-1.24-1.81-2-2.6-.11-.12-.19-.28-.28-.42-.11-.17-.19-.36-.32-.49-.26-.26-.48-.55-.63-.89-.1-.23-.27-.35-.53-.36-.02-.81.26-1.56.44-2.33.68-2.9,1.57-5.73,2.71-8.48.55-1.33,1.18-2.63,1.78-3.94.09-.2.16-.43.35-.57Z"/>
    <path class="cls-12" d="M198.72,126.3c.25,0,.43.13.53.36.15.34.37.63.63.89.13.14.21.33.32.49.09.14.16.3.28.42.76.79,1.4,1.68,2,2.6.12.19.27.36.43.52.3.3.59.6.76,1,.07.17.22.32.36.46.52.52.98,1.09,1.33,1.74.08.15.19.28.3.4.46.49,1,.92,1.3,1.55.03.07.2.09.3.13-.04.82.01,1.64-.14,2.46-.07.38-.07.8,0,1.19.11.59.1,1.18.13,1.78,0,.14,0,.28.02.42.22,1.51.36,3.03.62,4.53.39,2.26.87,4.5,1.54,6.69.29.95.57,1.9.85,2.84-.49-.1-.77-.47-.98-.86-.21-.38-.49-.68-.76-1.01-.73-.89-1.43-1.8-2.14-2.71-.36-.47-.67-.98-1.11-1.38-.08-.07-.16-.16-.21-.26-.6-1.13-1.47-2.05-2.24-3.05-.5-.65-.95-1.33-1.55-1.89-.12-.11-.18-.28-.26-.43-.25-.44-.51-.88-.89-1.22-.19-.17-.33-.38-.46-.6-.39-.67-.98-1.16-1.51-1.71-.15-.15-.33-.2-.54-.18-.02-.22-.05-.45-.05-.67,0-1.95.01-3.91.02-5.86,0-.99.17-1.97.25-2.95.08-.99.23-1.96.38-2.94.13-.86.27-1.73.42-2.59,0-.05.06-.09.09-.14Z"/>
    <path class="cls-16" d="M156.01,218.08c.38-.22.8-.28,1.22-.33.31-.04.61-.1.89-.23.41-.2.85-.33,1.31-.32.26,0,.5-.07.73-.19.53-.28,1.11-.42,1.71-.47.03,0,.06,0,.08,0,.88-.42,1.86-.45,2.76-.76.11-.04.21-.08.32-.12.56-.22,1.17-.22,1.73-.38.54-.15,1.05-.41,1.62-.48.47-.06.94-.2,1.4-.31-.01.35.04.65.3.93.35.36.63.79.92,1.19.28.38.55.77.89,1.12.31.32.57.7.8,1.08.36.61.78,1.17,1.28,1.66.18.18.41.34.51.56.26.57.68,1.02,1.09,1.47-.38.33-.85.46-1.32.49-.46.03-.89.14-1.29.35-.12.06-.26.12-.4.14-.88.17-1.77.29-2.61.64-.17.07-.39.04-.59.07-.17.02-.35.03-.49.1-.56.29-1.17.41-1.78.51-.34.06-.65.16-.97.28-.42.16-.85.3-1.31.3-.2,0-.39.03-.57.13-.71.4-1.5.44-2.28.55-.59-.44-1.13-.94-1.54-1.55-.49-.75-1.06-1.44-1.59-2.17-.51-.7-1.16-1.3-1.59-2.06-.19-.34-.45-.64-.71-.94-.31-.35-.63-.73-.54-1.27Z"/>
    <path class="cls-11" d="M156.01,218.08c-.09.54.24.92.54,1.27.26.3.52.6.71.94.43.77,1.08,1.36,1.59,2.06.52.73,1.09,1.42,1.59,2.17.4.61.95,1.11,1.54,1.55-.4.35-.9.43-1.41.5-.25.03-.51,0-.74.13-.48.25-1,.37-1.53.45-.47.07-.92.22-1.38.36-.88.26-1.82.37-2.67.73-.64-.02-1.21.23-1.79.44-.4.14-.81.26-1.23.27-.11,0-.24,0-.33.04-.66.34-1.37.49-2.11.54-.14,0-.27.07-.41.11-.14-.02-.27-.06-.35-.2-.54-.93-1.25-1.72-1.95-2.53-.22-.25-.4-.54-.59-.82-.16-.23-.25-.55-.47-.69-.6-.38-.8-1.08-1.3-1.52-.49-.43-.72-1.07-1.17-1.54-.17-.18-.28-.42-.31-.68.45-.27.93-.39,1.45-.38.29,0,.56-.05.81-.19.35-.19.73-.28,1.12-.35.52-.09,1.05-.17,1.53-.43.17-.09.38-.17.56-.16.64,0,1.21-.23,1.79-.45.18-.07.38-.09.57-.13.47-.1.94-.18,1.39-.36.45-.19.9-.31,1.39-.32.16,0,.34-.04.49-.11.66-.36,1.38-.46,2.11-.55.19-.02.38-.1.57-.15Z"/>
    <path class="cls-13" d="M175.59,222.5c-.42-.45-.83-.9-1.09-1.47-.1-.22-.33-.38-.51-.56-.5-.5-.91-1.06-1.28-1.66-.23-.38-.49-.76-.8-1.08-.33-.35-.6-.74-.89-1.12-.3-.41-.58-.83-.92-1.19-.27-.28-.32-.58-.3-.93.05-.03.09-.09.14-.09.82-.09,1.58-.4,2.36-.61.73-.19,1.48-.29,2.18-.61.2-.09.44-.1.66-.13.42-.05.82-.16,1.21-.34.23-.11.48-.21.73-.21.58,0,1.1-.21,1.63-.41.5-.19,1.05-.21,1.57-.33.52-.11,1-.38,1.53-.45.25-.04.51-.02.76-.03.1.59.49,1.01.86,1.43.24.28.5.54.65.88.06.13.14.25.24.35.72.7,1.22,1.55,1.79,2.35.11.16.22.33.35.47.37.39.77.75,1.05,1.21.13.21.35.37.53.55.15.15.31.24.53.14.23-.11.43.12.65.1-.5.5-1.14.7-1.82.81-.19.03-.4.03-.57.11-1.03.49-2.2.45-3.23.92-.27.12-.61.11-.91.16-.14.02-.29.02-.41.08-1,.47-2.15.42-3.15.91-.14.07-.33.05-.5.06-.31.01-.62.08-.9.21-.67.32-1.4.43-2.13.47Z"/>
    <path class="cls-14" d="M121.79,227.08c.11.48.3.91.66,1.25.34.31.58.69.83,1.06.42.63.84,1.26,1.36,1.82.11.12.19.28.28.42.08.12.13.27.24.34.79.54,1.23,1.37,1.76,2.13.28.39.56.77.83,1.16-.25.2-.55.3-.85.32-.29.02-.55.13-.82.2-.68.18-1.36.35-2.04.53-.14.03-.29.11-.41.07-.42-.14-.78.06-1.15.16-.38.1-.79.02-1.16.2-.94.45-2.06.33-2.98.87-.11.06-.28.02-.42.05-.44.09-.88.16-1.3.34-.57.24-1.18.35-1.81.33,0-.23-.04-.43-.19-.63-.89-1.15-1.75-2.33-2.65-3.48-.68-.86-1.34-1.73-1.97-2.62-.36-.5-.78-.96-1.19-1.41-.21-.23-.32-.46-.27-.76.32.03.6.16.85.35.38.28.78.28,1.2.13.61-.22,1.23-.41,1.88-.44.13,0,.27-.08.4-.13.49-.22.99-.4,1.54-.39.2,0,.39-.06.57-.15.4-.22.83-.34,1.28-.41.52-.08,1.05-.19,1.53-.43.2-.1.43-.17.65-.17.58.02,1.12-.14,1.63-.38.55-.26,1.13-.33,1.73-.32Z"/>
    <path class="cls-12" d="M197.73,145.72c.19.23.19.25.01.49-.18-.16-.17-.32-.01-.49Z"/>
    <path class="cls-12" d="M197.62,144.36c.03.06.06.12.08.19-.07-.04-.12-.1-.08-.19Z"/>
    <path class="cls-10" d="M327.27,200.74s-.05.05-.07.04c-.63-.11-1.23.03-1.82.21-.03,0-.06.01-.08.01-1.25-.06-2.46.3-3.72.22-.92-.06-1.85.18-2.78-.01-.13-.03-.29,0-.42.04-.45.14-.89.12-1.34,0-.36-.09-.74-.08-1.1.02-.39.11-.78.12-1.17,0-.31-.09-.62-.09-.92,0-.25.08-.5.09-.76.09-.65,0-1.3-.04-1.94.15-.18.05-.39.03-.59.02-.45,0-.89.04-1.35.12-.66.13-1.35.12-2.02-.06-.4-.11-.6.03-.66.42-.03.17-.02.34-.02.51,0,.54.01,1.07-.15,1.6-.07.23-.04.51-.03.76.03.75-.07,1.47-.39,2.15-.09.18-.12.37-.13.57-.02.77-.23,1.5-.4,2.25-.23,1.04-.38,2.11-.55,3.17-.02.13.04.27.06.41.08.88.15,1.75-.16,2.61-.05.13-.09.28-.07.41.1.47.21.94.34,1.4.05.18.16.37.29.51.49.55.94,1.13,1.48,1.64.58.54,1.13,1.11,1.69,1.68.24.25.51.45.82.6.78.37,1.4.91,1.94,1.6.55.71,1.08,1.45,1.79,2.03.22.18.39.41.5.67.2.44.47.83.82,1.17.34.33.63.72.88,1.14.26.44.59.81,1.01,1.13.69.52,1.2,1.2,1.54,2,.07.16.1.34.19.47.21.29.29.61.25.96-.03.3.07.54.23.79,1.57,2.53,3.01,5.13,4.28,7.83.82,1.74,1.56,3.52,2.24,5.32,1.08,2.86,1.98,5.78,2.68,8.76.46,1.98.88,3.97,1.15,5.99.15,1.12.37,2.23.45,3.36.08.99.17,1.97.24,2.96.13,1.75.13,3.51.13,5.26,0,.28-.02.57-.03.85-.17,0-.34,0-.45-.16-.12-.19-.25-.38-.38-.56-.3-.44-.57-.91-.93-1.31-.32-.36-.61-.74-.89-1.13-.1-.14-.18-.3-.3-.41-.36-.33-.62-.73-.89-1.13-.11-.16-.23-.32-.36-.47-.4-.47-.82-.93-1.22-1.4-.07-.08-.13-.18-.18-.29-.15-.34-.38-.63-.65-.88-.17-.15-.31-.33-.4-.54-.07-.15-.14-.31-.3-.4-.25-.15-.37-.42-.57-.61-.5-.48-.74-1.13-1.2-1.63-.68-.75-1.19-1.64-1.9-2.37-.12-.13-.21-.26-.25-.44-.08-.35-.35-.4-.66-.39-.05-.13-.12-.26-.16-.39-.49-2.07-1.13-4.09-1.81-6.1-.4-1.19-.97-2.3-1.55-3.39-.41-.78-.79-1.56-1.02-2.4-.06-.22-.15-.43-.24-.63-.33-.78-.65-1.56-.98-2.35-.08-.18-.15-.36-.25-.53-.36-.61-.67-1.24-.86-1.93-.11-.41-.31-.79-.62-1.1-.18-.18-.32-.39-.44-.62-.36-.67-.73-1.34-1.11-2-.05-.1-.12-.19-.21-.27-.43-.39-.73-.86-.97-1.38-.13-.28-.33-.53-.51-.78-.44-.62-.89-1.24-1.34-1.86-1.03-1.42-2.13-2.79-3.27-4.13-.2-.24-.41-.47-.51-.77-.1-.28-.26-.5-.54-.62-.36-.15-.6-.43-.83-.72-.55-.69-1.17-1.3-1.86-1.86-.28-.23-.56-.49-.77-.79-.39-.55-.77-1.12-1.27-1.59-.12-.11-.21-.27-.29-.42-.36-.71-.71-1.42-1.06-2.13-.11-.23-.11-.47-.11-.73,0-.61.01-1.24-.25-1.83-.27-.6-.38-1.24-.34-1.91.01-.25.01-.51,0-.77-.04-.87.11-1.69.53-2.46.1-.17.19-.36.12-.57-.21-.61-.08-1.24-.12-1.86-.04-.66.06-1.3.29-1.92.35-.96.67-1.92.56-2.97-.01-.11,0-.23.03-.34.12-.36.11-.73.11-1.09,0-.91.02-1.81.03-2.72,0-.31,0-.62.06-.93.14-.6.27-1.21.38-1.82.09-.5.11-1.02,0-1.52-.12-.56-.16-1.12,0-1.68.07-.28.1-.57.02-.84-.1-.34-.1-.67-.09-1.01.03-.97-.04-1.92-.28-2.86-.09-.34-.08-.67,0-1.01.09-.44.2-.89.23-1.33.03-.43.14-.84.28-1.24.1-.29.18-.6.3-.88.14-.33.13-.65.05-.99-.14-.59-.14-1.18.02-1.76.25-.89.62-1.75.77-2.68.38-.67.54-1.43.83-2.13.06-.16.12-.32.21-.46.59-.91,1.02-1.89,1.49-2.86.15-.3.27-.63.51-.88.28-.3.44-.65.56-1.04.1-.35.21-.71.44-1.01.67-.84,1.34-1.67,2.02-2.51.44.04.71.28.88.68.11.26.23.52.45.71.41.35.76.76,1.03,1.22.4.68,1.16,1.08,1.4,1.87.02.07.11.13.17.19.24.24.42.53.64.77.54.61.83,1.41,1.49,1.92.12.09.17.29.23.44.08.18.14.37.21.55-.27.37-.57.71-.95.96-.5.32-.8.78-.99,1.33-.14.4-.32.79-.47,1.18-.24.63-.49,1.27-.72,1.91-.07.18-.11.38-.12.58-.03.69-.2,1.34-.47,1.97-.19.45-.3.91-.35,1.39-.07.62-.14,1.26-.43,1.8-.26.51-.17.98-.1,1.47.04.27.22.39.44.45.33.1.67.06,1.01.05.3,0,.53-.18.81-.25.3-.07.59.09.91,0,.48-.14,1.01-.25,1.5-.2.58.06,1.12-.02,1.67-.14.34-.07.67-.08,1.01.02.33.09.67.09,1.01,0,.56-.14,1.12-.14,1.68,0,.23.06.44.06.67,0,.56-.14,1.12-.14,1.68,0,.26.06.49.05.75,0,.56-.11,1.12-.16,1.67.08.03.11.03.23.09.32.52.7.89,1.5,1.55,2.1.08.07.16.17.2.27.3.72.92,1.19,1.37,1.8.46.63.99,1.2,1.43,1.86.41.62.74,1.33,1.36,1.8.19.14.3.34.3.58Z"/>
    <path class="cls-9" d="M311.62,325.86c-.04.18-.16.29-.28.42-.95,1.09-1.94,2.14-2.97,3.16-1.23,1.22-2.44,2.45-3.69,3.66-2.16,2.09-4.47,4.02-6.89,5.81-2.99,2.21-6.13,4.19-9.42,5.93-3.12,1.64-6.33,3.06-9.65,4.22-.11.04-.22.05-.33.08-.02-.15-.07-.26-.2-.35-.16-.12-.35-.24-.42-.41-.24-.57-.69-.96-1.1-1.39-.13-.14-.26-.3-.35-.47-.32-.6-.8-1.09-1.23-1.61-.37-.45-.91-.77-1.07-1.39-.02-.07-.1-.14-.16-.19-.29-.24-.45-.58-.66-.87-.29-.41-.54-.86-.9-1.22-.25-.24-.39-.55-.37-.92.64-.23,1.28-.46,1.92-.69,3.48-1.23,6.84-2.72,10.09-4.46,3.2-1.71,6.27-3.64,9.17-5.83,2.94-2.22,5.79-4.54,8.26-7.31.9-1.02,1.79-2.05,2.64-3.1.36-.44.65-.93,1.09-1.29.2,0,.41-.01.56.14.42.41.88.79,1.15,1.35.29.61.61,1.22,1.22,1.6.07.04.12.12.17.19.55.75,1.13,1.49,1.63,2.27.26.41.47.84.93,1.06.07.03.15.11.18.18.17.51.6.89.67,1.45Z"/>
    <path class="cls-11" d="M265.14,352.43c-.46.16-.93.22-1.41.27-.34.04-.67.09-1.01.13-.5.05-.99.22-1.51.09-.15-.04-.33.02-.5.04-.14.02-.28.08-.42.07-1.1-.15-2.19.05-3.29.02-1.13-.03-2.27,0-3.4,0-1.1,0-2.21-.02-3.31.01-.76.02-1.53-.09-2.29.08-.13.03-.28-.04-.42-.06-.31-.03-.63-.07-.93.02-.26.08-.49.07-.75,0-.43-.14-.84.16-1.26.09-.42-.07-.82-.11-1.25-.04-.55.1-1.13.06-1.69.06-1.08,0-2.15.01-3.23.01-.14,0-.28-.03-.42-.04-.05-.29-.23-.49-.41-.71-.9-1.14-1.9-2.21-2.64-3.48-.18-.3-.42-.53-.67-.76-.41-.39-.75-.85-1.04-1.32-.37-.6-.76-1.17-1.26-1.67-.29-.29-.47-.63-.45-1.05.31-.05.61-.14.92-.14,1.61-.02,3.22,0,4.83-.03,1.97-.04,3.95.11,5.92-.13.13-.02.28.04.42.05.75.07,1.5-.08,2.25.03.03,0,.05-.01.08-.02.27-.1.56-.08.84-.08.65,0,1.3,0,1.95,0,.65,0,1.31.03,1.95-.03.89-.09,1.79-.16,2.68-.14,1.08.02,2.13-.22,3.21-.21.11,0,.22-.06.33-.06.5-.02.99-.26,1.5-.16-.02.29,0,.56.25.77.27.22.43.52.59.82.1.2.21.42.38.55.38.31.62.72.88,1.12.2.3.4.63.67.86.71.62,1.12,1.47,1.75,2.16.68.75,1.18,1.64,1.9,2.36.15.15.22.33.23.53Z"/>
    <path class="cls-6" d="M318.08,260.44c.3,0,.58.04.66.39.04.17.13.31.25.44.7.73,1.21,1.63,1.9,2.37.46.5.7,1.16,1.2,1.63.2.19.32.47.57.61.16.09.23.25.3.4.1.21.23.39.4.54.28.25.5.53.65.88.04.1.11.2.18.29.4.47.82.93,1.22,1.4.13.15.24.31.36.47.28.39.53.8.89,1.13.12.11.2.27.3.41.28.39.56.77.89,1.13.35.4.62.87.93,1.31.13.19.25.37.38.56.11.17.29.16.45.16.01,1.39.05,2.78.03,4.17-.03,1.64-.06,3.29-.2,4.92-.07.81-.14,1.63-.25,2.45-.13.95-.24,1.91-.38,2.86-.26,1.68-.54,3.35-.94,5-.14.57-.18,1.18-.45,1.72-.35-.02-.57-.27-.73-.53-.67-1.11-1.64-2-2.31-3.11-.44-.72-1.14-1.24-1.51-2.02-.05-.1-.16-.16-.23-.25-.12-.15-.25-.3-.34-.48-.15-.28-.36-.5-.53-.76-.47-.67-1.11-1.2-1.56-1.88-.26-.4-.61-.73-1.1-.85.07-.59.14-1.18.22-1.76.14-1.03.32-2.06.43-3.1.14-1.29.25-2.59.33-3.88.09-1.58-.12-3.16-.17-4.75-.03-.87-.21-1.74-.26-2.61-.05-.76-.1-1.52-.3-2.27-.04-.14-.03-.28-.05-.42-.15-1-.28-2.01-.47-3.01-.22-1.19-.49-2.38-.74-3.56Z"/>
    <path class="cls-14" d="M201.3,353.58c-.07-.52-.36-.89-.78-1.16-.23-.14-.37-.33-.51-.55-.25-.41-.51-.82-.83-1.17-.64-.69-1.13-1.47-1.64-2.25-.08-.12-.15-.25-.25-.34-.6-.5-.97-1.17-1.4-1.8-.28-.42-.54-.86-.92-1.21-.11-.1-.15-.24-.16-.38.5-.07.98-.28,1.5-.12.47.15.95.13,1.42,0,.34-.09.67-.08,1,.02.39.11.78.11,1.17,0,.31-.09.62-.12.92-.03.42.13.84.12,1.26.1.61-.04,1.22-.11,1.84,0,.24.04.51-.02.75-.08.34-.08.67-.1,1,0,.28.09.56.12.84.07.64-.11,1.3-.07,1.93-.19.62-.11,1.23-.15,1.85-.14.84.02,1.68-.13,2.53-.02.16.02.34-.01.5-.05.78-.15,1.58-.06,2.36-.06.07,0,.15.08.22.12-.03.36.09.69.34.92.35.33.58.76.9,1.12.7.8,1.39,1.6,1.92,2.54.19.33.58.55.8.87.7,1.06,1.41,2.1,2.23,3.07.12.14.11.31.11.48-.82.02-1.64.04-2.46.05-.68,0-1.36,0-2.04,0-.2,0-.39.05-.59.05-.69,0-1.39-.08-2.08.06-.39-.14-.77-.14-1.16,0-.05.02-.11.03-.17.02-1.09-.23-2.18.08-3.28.03-1.13-.05-2.26,0-3.39,0-1.1,0-2.21,0-3.31,0-.82,0-1.64.01-2.46.02Z"/>
    <path class="cls-7" d="M319.09,285.81c.49.12.84.45,1.1.85.45.69,1.09,1.21,1.56,1.88.18.25.39.48.53.76.09.17.22.32.34.48.07.09.18.15.23.25.37.78,1.07,1.3,1.51,2.02.67,1.11,1.64,1.99,2.31,3.11.15.26.37.51.73.53-.06.77-.34,1.48-.55,2.21-.83,2.91-1.83,5.76-3.01,8.54-.66,1.56-1.38,3.1-2.15,4.61-.11.22-.18.48-.39.64-.24-.11-.42-.29-.52-.53-.16-.41-.45-.71-.76-1-.18-.18-.34-.37-.48-.59-.17-.29-.39-.55-.59-.82-.59-.82-1.29-1.56-1.77-2.45-.12-.22-.27-.44-.45-.61-.78-.74-1.31-1.68-2.03-2.47-.24-.26-.45-.4-.77-.4.08-.24.15-.49.25-.72.68-1.68,1.37-3.35,1.96-5.06.93-2.73,1.74-5.5,2.33-8.32.2-.97.42-1.93.63-2.9Z"/>
    <path class="cls-13" d="M313.93,302.81c.33,0,.54.14.77.4.72.79,1.26,1.73,2.03,2.47.18.17.33.39.45.61.48.9,1.18,1.63,1.77,2.45.2.27.42.53.59.82.13.22.29.41.48.59.31.29.6.6.76,1,.1.24.28.42.52.53-.14.5-.41.93-.66,1.37-.88,1.58-1.8,3.15-2.79,4.66-1.04,1.59-2.12,3.15-3.28,4.65-.83,1.07-1.72,2.11-2.57,3.16-.11.13-.21.27-.38.33-.07-.55-.5-.94-.67-1.45-.02-.07-.1-.14-.18-.18-.47-.22-.67-.65-.93-1.06-.5-.78-1.08-1.51-1.63-2.27-.05-.07-.1-.14-.17-.19-.6-.38-.93-.99-1.22-1.6-.26-.56-.72-.94-1.15-1.35-.16-.15-.36-.13-.56-.14.44-.8,1.04-1.47,1.56-2.21,2.46-3.5,4.63-7.16,6.46-11.02.25-.53.53-1.06.8-1.58Z"/>
    <path class="cls-6" d="M327.27,200.74c0-.24-.12-.44-.3-.58-.63-.47-.95-1.18-1.36-1.8-.44-.66-.96-1.23-1.43-1.86-.45-.61-1.07-1.08-1.37-1.8-.04-.1-.12-.19-.2-.27-.66-.59-1.03-1.4-1.55-2.1-.06-.08-.06-.21-.09-.32.52-.16,1.05-.19,1.6-.18.25,0,.5,0,.76-.06.66-.14,1.31-.38,2-.17.12.03.27-.04.41-.08.61-.17,1.22-.19,1.85-.18.68.01,1.36-.08,1.99-.33.8-.32,1.61-.48,2.47-.52.65-.03,1.28-.23,1.93-.24.08,0,.16-.06.24-.09,1.02-.32,2.06-.56,3.08-.89.27-.09.55-.11.83-.17.11.03.25.03.32.1.36.39.76.76,1.03,1.21.5.83,1.15,1.52,1.79,2.23.58.64.98,1.44,1.63,2.03.04.03.05.1.08.15.31.62.81,1.07,1.35,1.47-.45.29-.9.57-1.35.86-.39.25-.81.4-1.26.49-.45.09-.87.23-1.27.46-.15.09-.3.16-.47.2-.96.24-1.92.45-2.83.83-.81-.03-1.55.27-2.31.48-.13.04-.28.07-.42.05-.92-.1-1.77.33-2.68.37-.11,0-.21.07-.32.12-.87.37-1.74.59-2.71.45-.46-.07-.95.08-1.43.13Z"/>
    <path class="cls-12" d="M344.3,196.28c-.55-.4-1.05-.85-1.35-1.47-.02-.05-.04-.11-.08-.15-.65-.59-1.05-1.38-1.63-2.03-.64-.71-1.29-1.4-1.79-2.23-.27-.45-.67-.82-1.03-1.21-.06-.07-.21-.07-.32-.1.13-.1.25-.25.4-.3.51-.18.96-.47,1.4-.79.14-.1.29-.17.45-.24.31-.14.57-.35.85-.55.78-.56,1.59-1.06,2.28-1.75.4-.4,1-.53,1.48-.81.48-.28.89-.7,1.43-.91.3-.12.53-.32.79-.48.53-.34.96-.78,1.37-1.24.19-.21.39-.41.62-.57.81-.57,1.34-1.46,2.22-1.94.11-.06.16-.23.25-.34.28-.32.52-.68.95-.82.16.81.71,1.4,1.21,1.99.42.49.79,1.02,1.16,1.55.5.71,1.07,1.36,1.6,2.05.23.3.53.56.73.9.17.28.33.59.64.78.07.04.08.2.12.3-.31.32-.61.67-.94.97-.79.73-1.58,1.46-2.38,2.17-.46.41-.94.81-1.37,1.26-.16.16-.31.35-.5.46-.96.59-1.93,1.17-2.91,1.72-.24.14-.51.24-.73.42-.17.14-.36.27-.56.39-.37.22-.71.46-.99.78-.24.28-.54.52-.87.67-.65.3-1.21.71-1.77,1.14-.22.17-.47.33-.76.37Z"/>
    <path class="cls-2" d="M222.23,353.35c0-.17,0-.34-.11-.48-.82-.97-1.53-2.01-2.23-3.07-.21-.32-.61-.54-.8-.87-.53-.93-1.22-1.74-1.92-2.54-.32-.36-.55-.78-.9-1.12-.25-.24-.37-.56-.34-.92.39-.05.79-.17,1.17-.13.54.06,1.06,0,1.59-.02,1.1-.03,2.21,0,3.31-.02,1.92-.04,3.85.09,5.77-.11.08,0,.17,0,.25.03.37.1.73.09,1.09-.03.4-.14.77.16,1.17.08.14-.03.27-.08.41-.1.31-.03.62-.09.9.12-.02.42.16.76.45,1.05.5.5.89,1.07,1.26,1.67.29.47.63.93,1.04,1.32.24.23.49.46.67.76.74,1.26,1.73,2.34,2.64,3.48.18.22.37.42.41.71-.87.02-1.75.04-2.62.06-.99.02-1.97-.08-2.96.08-.13.02-.27-.05-.41-.06-.34-.03-.67.02-1.01.03-.67.02-1.34.06-2,.04-.42-.01-.83-.11-1.25.03-.1.03-.22.02-.34.02-1.53,0-3.05.02-4.58.02-.23,0-.45-.02-.68-.04Z"/>
    <path class="cls-16" d="M265.14,352.43c-.01-.2-.08-.38-.23-.53-.72-.72-1.22-1.61-1.9-2.36-.62-.69-1.04-1.54-1.75-2.16-.27-.24-.47-.56-.67-.86-.26-.4-.5-.8-.88-1.12-.17-.14-.28-.36-.38-.55-.16-.3-.32-.6-.59-.82-.25-.2-.27-.48-.25-.77,1.29-.15,2.57-.35,3.84-.59,2.53-.47,5.03-1.03,7.5-1.75.7-.21,1.41-.4,2.11-.6-.02.36.12.67.37.92.37.36.61.81.9,1.22.21.3.37.64.66.87.07.05.15.12.16.19.16.62.7.94,1.07,1.39.43.52.91,1,1.23,1.61.09.17.22.33.35.47.41.43.86.81,1.1,1.39.07.17.26.29.42.41.13.1.18.21.2.35-.21.21-.5.24-.77.33-3.37,1.15-6.82,2.01-10.31,2.68-.72.14-1.45.19-2.18.29Z"/>
    <path class="cls-12" d="M263.93,86.42c.03-.44-.28-.73-.52-1.03-.27-.33-.51-.66-.72-1.03-.21-.36-.43-.73-.76-1-.09-.07-.18-.15-.23-.24-.42-.87-1.18-1.49-1.71-2.29-.32-.49-.76-.9-1.05-1.42-.05-.09-.15-.18-.24-.23-.43-.21-.66-.6-.9-.98-.21-.33-.42-.66-.61-1.01-.06-.12-.04-.27-.06-.41,3.05,0,6.11,0,9.16,0,1.16-.01,2.31.18,3.46.29.9.09,1.79.24,2.69.36,1.6.22,3.17.57,4.74.95.58.14,1.15.3,1.73.44.25.06.49.12.7.28-.06.39.05.71.29,1.02.35.44.69.89,1.04,1.34.47.59,1.07,1.09,1.4,1.8.06.13.16.23.26.34.87,1,1.71,2.03,2.45,3.13.35.51.73,1.01,1.14,1.47.37.42.67.91,1.09,1.3.2.19.36.44.47.7.19.46.51.82.81,1.19.41.5.79,1.03,1.25,1.49.34.33.61.74.87,1.14.35.55.67,1.11,1.24,1.47.2.13.32.34.37.56.1.38.28.67.64.85.27.13.3.39.29.66-.24-.15-.49-.29-.72-.45-1.71-1.21-3.47-2.33-5.3-3.36-2.94-1.65-6-3.05-9.17-4.19-2.53-.91-5.11-1.63-7.74-2.17-2.1-.44-4.22-.74-6.35-.96Z"/>
    <path class="cls-5" d="M55.54,241.94c.33-.26.37-.26.54-.04.37.49.91.86,1.11,1.48.51.44.75,1.13,1.38,1.47.3.16.42.52.59.81.47.8,1.06,1.52,1.65,2.23.31.37.63.73.88,1.13.36.59.82,1.08,1.3,1.55.22.22.47.41.6.7.23.49.45.97.98,1.23.12.06.23.19.28.31.29.69.78,1.22,1.32,1.71.16.15.24.38.35.57.66,1.08,1.36,2.14,2.3,3.01.15.14.28.28.5.29.06.23.2.43.19.68-.19.03-.33.1-.23.33.08.19.19.35.42.35.06.13.12.26.16.39,1.2,3.72,2.52,7.4,4.04,11,.79,1.88,1.61,3.75,2.49,5.58,1.14,2.38,2.31,4.74,3.61,7.03,1.16,2.05,2.34,4.08,3.6,6.07,1.83,2.9,3.76,5.73,5.82,8.47,1.33,1.77,2.71,3.48,4.11,5.19,1.33,1.62,2.72,3.19,4.14,4.73.99,1.08,2.01,2.15,3.07,3.16,1.84,1.76,3.71,3.49,5.66,5.14,1.26,1.06,2.53,2.1,3.81,3.12,2.39,1.91,4.88,3.68,7.4,5.42.93.64,1.87,1.27,2.81,1.9-.03.39.12.72.38,1,.26.26.49.54.81.74.47.29.82.69,1.02,1.21.23.59.64,1.06,1,1.56.26.38.72.55,1.01.89.3.33.3.84.67,1.16.53.46.83,1.12,1.38,1.57.16.13.25.37.34.58.16.37.41.67.69.95.6.6,1.12,1.26,1.57,1.98.31.5.7.95.86,1.54.02.08.08.17.15.2.45.18.64.62.99.9.28.22.48.55.7.84.2.27.35.58.66.76.07.04.13.12.15.19.13.53.51.87.87,1.23q.79.79.5,1.84c-.49-.05-.9-.34-1.34-.53-.78-.33-1.56-.67-2.33-1.03-1.51-.72-3.03-1.42-4.51-2.19-1.96-1.02-3.89-2.09-5.81-3.18-2.31-1.32-4.56-2.75-6.78-4.22-2.15-1.42-4.26-2.91-6.29-4.49-1.61-1.25-3.21-2.51-4.79-3.8-1.14-.94-2.2-1.95-3.32-2.91-1.1-.94-2.09-2-3.16-2.96-1.75-1.57-3.38-3.27-5.02-4.96-1.03-1.06-2.07-2.1-3.04-3.2-.92-1.04-1.85-2.07-2.73-3.14-.91-1.09-1.83-2.16-2.71-3.27-.67-.84-1.34-1.68-1.99-2.54-1.96-2.57-3.81-5.21-5.55-7.93-1.35-2.1-2.64-4.23-3.86-6.4-1.52-2.69-2.93-5.44-4.25-8.23-.86-1.81-1.65-3.67-2.43-5.52-1.2-2.81-2.26-5.68-3.22-8.59-1.23-3.71-2.3-7.46-3.18-11.27-.52-2.26-.97-4.53-1.4-6.81-.28-1.47-.47-2.96-.69-4.44-.08-.53-.12-1.07-.17-1.6.1-.01.23-.03.24-.14.02-.18-.14-.17-.26-.2-.01-.21-.03-.42-.04-.63Z"/>
    <path class="cls-4" d="M55.58,242.57c.12.02.28.02.26.2-.01.11-.14.13-.24.14,0-.11-.01-.23-.02-.34Z"/>
    <path class="cls-8" d="M120.44,326.98c-.94-.63-1.88-1.26-2.81-1.9-2.52-1.74-5.01-3.51-7.4-5.42-1.28-1.03-2.55-2.07-3.81-3.12-1.95-1.64-3.82-3.38-5.66-5.14-1.07-1.02-2.08-2.08-3.07-3.16-1.42-1.54-2.81-3.11-4.14-4.73-1.4-1.71-2.79-3.43-4.11-5.19-2.06-2.74-3.99-5.57-5.82-8.47-1.26-1.99-2.44-4.02-3.6-6.07-1.3-2.3-2.47-4.66-3.61-7.03-.88-1.84-1.7-3.71-2.49-5.58-1.52-3.6-2.85-7.28-4.04-11-.04-.13-.11-.26-.16-.39.02-.25-.06-.47-.19-.68.02-.25-.13-.45-.19-.68-.25-.92-.51-1.85-.76-2.77-.73-2.7-1.41-5.4-1.94-8.15-.06-.33-.18-.65-.31-.96-.22-.53-.38-1.07-.34-1.64.05-.84-.23-1.61-.43-2.41-.13-.52-.3-1.03-.3-1.58,0-.19-.08-.39-.14-.57-.21-.6-.25-1.22-.08-1.83.08-.28.09-.56,0-.83-.12-.36-.12-.73-.05-1.09.09-.44-.07-.89.1-1.34.28-.74.34-1.52.46-2.3.12-.78.27-1.55.24-2.35-.01-.26.03-.51.13-.75.08-.21.18-.42.22-.64.17-.85.66-1.48,1.36-1.98.46-.37.93-.73,1.39-1.1.57-.45,1.22-.71,1.95-.72.73,0,1.47-.14,2.19.14.05.02.11.02.17.02.75-.1,1.46.06,2.15.34.08.03.18.02.25.06.87.55,1.9.73,2.8,1.21.4.22.81.41,1.26.49.3.06.59.18.85.37.2.15.44.28.68.34.81.18,1.51.64,2.28.9.73.25,1.42.54,2.1.89.03.01.05.03.08.03.75.1,1.35.54,2.02.84.18.08.38.11.57.17.32.1.64.19.93.39.23.16.5.26.77.34.68.21,1.34.43,1.96.78.39.22.85.29,1.3.35.41.48.99.64,1.56.8.33.09.65.17.93.38.32.24.7.39,1.09.46.43.09.81.26,1.18.46.47.26.97.48,1.5.58.49.1.84.46,1.29.63.42.17.89.16,1.28.42.5.34,1.04.57,1.64.67.26.05.48.16.69.32.35.26.75.41,1.16.5.4.08.76.23,1.1.44.86.51,1.78.68,2.77.63.49-.03.95-.16,1.39-.34.44-.18.86-.19,1.32-.11.98.18,1.9-.04,2.74-.58.63.02,1.24-.1,1.81-.33.42-.18.86-.25,1.3-.34.14-.03.31.01.42-.05.93-.53,2.04-.41,2.98-.87.37-.18.78-.1,1.16-.2.37-.1.73-.3,1.15-.16.11.04.27-.04.41-.07.68-.17,1.36-.35,2.04-.53.27-.07.53-.17.82-.2.31-.03.6-.12.85-.32.11-.01.23,0,.34-.03.95-.24,1.9-.54,2.86-.72.67-.12,1.29-.41,1.97-.48.16-.01.34-.08.47-.17.7-.5,1.48-.79,2.34-.82.32-.01.63-.08.9-.22.47-.23.96-.33,1.46-.41.46-.07.88-.2,1.28-.41.18-.09.36-.16.57-.15.49.01.94-.14,1.4-.31.32-.11.63-.22.97-.28.61-.1,1.22-.22,1.78-.51.17-.09.38-.09.58-.1.29,0,.57-.05.82-.17.7-.33,1.46-.4,2.21-.52.26-.04.5-.09.65-.33.14-.04.27-.1.41-.11.74-.04,1.45-.2,2.11-.54.09-.05.22-.04.33-.04.43-.01.84-.13,1.23-.27.59-.2,1.15-.46,1.79-.44.86-.37,1.79-.47,2.67-.73.46-.14.91-.29,1.38-.36.53-.08,1.05-.2,1.53-.45.24-.12.49-.1.74-.13.5-.06,1.01-.14,1.41-.5.78-.11,1.57-.15,2.28-.55.18-.1.37-.13.57-.13.46,0,.89-.14,1.31-.3.32-.12.63-.22.97-.28.61-.1,1.22-.22,1.78-.51.14-.07.32-.08.49-.1.2-.03.41,0,.59-.07.84-.35,1.73-.47,2.61-.64.14-.03.27-.08.4-.14.41-.21.83-.32,1.29-.35.48-.03.94-.15,1.32-.49.73-.05,1.46-.15,2.13-.47.28-.14.59-.2.9-.21.17,0,.36,0,.5-.06,1-.49,2.15-.44,3.15-.91.12-.06.27-.06.41-.08.31-.05.64-.04.91-.16,1.03-.47,2.21-.44,3.23-.92.17-.08.38-.08.57-.11.68-.1,1.31-.31,1.82-.81.91-.19,1.84-.31,2.72-.61.76-.25,1.55-.32,2.3-.6.5-.19,1.04-.26,1.56-.38,1.02-.24,2.02-.52,3.04-.75,1.18-.26,2.35-.59,3.54-.83.77-.16,1.53-.41,2.29-.61.66-.17,1.31-.32,1.97-.48.85-.2,1.71-.36,2.54-.63.54-.17,1.09-.31,1.65-.39.79-.12,1.54-.37,2.3-.57.73-.19,1.51-.23,2.21-.58.69-.01,1.32-.29,1.98-.44.74-.17,1.48-.32,2.19-.61.61-.11,1.22-.23,1.82-.37.74-.17,1.46-.45,2.22-.52.16-.02.32-.09.48-.14.19-.06.37-.15.57-.17,1.02-.13,1.87-.61,2.65-1.24.22-.18.46-.33.72-.44.64-.27,1.18-.66,1.64-1.18.23-.26.48-.47.76-.67.3-.21.57-.47.8-.75.4-.48.76-.99,1.12-1.49.56-.78.74-1.71.94-2.62.17-.77.31-1.56.24-2.36-.04-.46.2-.89.12-1.35.33-.64.52-1.3.56-2.02.04-.59.16-1.17.12-1.77-.06-.82-.1-1.63-.18-2.45-.08-.84-.17-1.69-.3-2.52-.11-.7-.16-1.4-.2-2.11-.02-.4-.19-.74-.44-1.08-.47-.63-.99-1.23-1.44-1.88-.35-.5-.77-.96-1.22-1.4-.4-.39-.83-.65-1.33-.86-.34-.15-.66-.34-.91-.61-.19-.21-.41-.39-.65-.54-.31-.2-.56-.47-.78-.77-.56-.76-1.2-1.43-2.08-1.83-.32-.15-.58-.37-.79-.64-.47-.62-1.05-1.1-1.72-1.47-.28-.15-.51-.37-.69-.62-.5-.69-1.12-1.28-1.72-1.87-.31-.3-.56-.64-.73-1.03-.1-.22-.22-.38-.49-.42-.3-.04-.48-.26-.65-.5-2.28-3.25-4.28-6.67-5.87-10.31-.6-1.37-1.18-2.76-1.66-4.18-.04-.11-.1-.2-.15-.3-.28-.95-.56-1.9-.85-2.84-.66-2.2-1.15-4.43-1.54-6.69-.26-1.51-.4-3.03-.62-4.53-.02-.14-.01-.28-.02-.42-.03-.59-.02-1.18-.13-1.78-.07-.38-.07-.8,0-1.19.15-.82.1-1.64.14-2.46.04-.07.1-.15.11-.22.08-.7.12-1.4.22-2.1.16-1.11.33-2.23.54-3.33.57-2.94,1.36-5.81,2.36-8.63.2-.56.41-1.11.63-1.66.12-.29.21-.58.27-.89.34-.4.47-.9.68-1.36.69-1.59,1.47-3.13,2.3-4.65.9-1.64,1.87-3.24,2.94-4.78.92-1.33,1.88-2.62,2.82-3.93.1-.14.23-.25.35-.37,1.14-1.14,2.3-2.27,3.43-3.43.57-.59,1.23-1.09,1.85-1.62.43-.37.92-.67,1.31-1.07,1.3-1.33,2.87-2.28,4.4-3.3,1.16-.77,2.35-1.48,3.58-2.12.75-.39,1.49-.81,2.25-1.19,1.77-.89,3.61-1.64,5.46-2.35.21-.08.43-.14.6-.31.38-.1.77-.17,1.14-.3,2.4-.86,4.88-1.44,7.37-1.96,1.61-.34,3.23-.57,4.85-.78,1.6-.21,3.21-.28,4.83-.23.79.02,1.58.03,2.37.13,2.13.22,4.25.52,6.35.96,2.63.55,5.21,1.26,7.74,2.17,3.17,1.14,6.23,2.53,9.17,4.19,1.83,1.03,3.59,2.15,5.3,3.36.23.16.48.3.72.45.26.35.65.55.98.8,1.84,1.42,3.62,2.9,5.2,4.61,1,1.08,1.93,2.22,2.83,3.38,1.62,2.08,3.09,4.26,4.41,6.54,1.24,2.13,2.34,4.33,3.3,6.6.64,1.51,1.21,3.05,1.73,4.61.29.86.52,1.73.78,2.6.03.1.1.2.14.3,0,.26.06.5.13.75.45,1.78.84,3.58,1.11,5.4.13.9.28,1.79.36,2.69.09.99.23,1.97.28,2.95.1,1.79-.09,3.56-.28,5.33-.15,1.38-.35,2.75-.6,4.11-.38,2.09-.87,4.15-1.51,6.18-.09.27-.17.54-.18.83-.05.1-.12.19-.15.29-.69,2.01-1.43,3.99-2.3,5.93-.84,1.86-1.77,3.67-2.78,5.44-.28.49-.49,1.03-.83,1.48-.55.73-.91,1.56-1.44,2.3-.08.11-.11.26-.17.39-.67.84-1.35,1.67-2.02,2.51-.23.29-.34.65-.44,1.01-.12.39-.28.74-.56,1.04-.24.25-.36.58-.51.88-.47.97-.9,1.95-1.49,2.86-.09.14-.15.31-.21.46-.29.7-.45,1.46-.83,2.13-.15.92-.52,1.78-.77,2.68-.16.59-.16,1.18-.02,1.76.08.34.09.66-.05.99-.12.29-.2.59-.3.88-.14.4-.24.81-.28,1.24-.04.45-.14.89-.23,1.33-.07.34-.08.67,0,1.01.24.94.31,1.9.28,2.86-.01.34,0,.68.09,1.01.08.27.06.56-.02.84-.15.56-.11,1.12,0,1.68.11.5.09,1.02,0,1.52-.11.61-.24,1.22-.38,1.82-.07.31-.06.62-.06.93-.01.91-.02,1.81-.03,2.72,0,.37.01.74-.11,1.09-.04.1-.05.23-.03.34.12,1.05-.2,2.01-.56,2.97-.23.62-.33,1.26-.29,1.92.04.62-.09,1.25.12,1.86.07.21-.02.39-.12.57-.42.77-.57,1.59-.53,2.46.01.25.01.51,0,.77-.04.66.07,1.3.34,1.91.26.59.24,1.22.25,1.83,0,.26,0,.5.11.73.35.71.7,1.42,1.06,2.13.08.15.17.31.29.42.5.47.88,1.03,1.27,1.59.21.3.49.56.77.79.69.55,1.3,1.17,1.86,1.86.23.28.47.57.83.72.28.12.44.34.54.62.11.3.31.53.51.77,1.14,1.34,2.24,2.7,3.27,4.13.45.62.89,1.24,1.34,1.86.18.25.38.5.51.78.25.52.54.99.97,1.38.08.07.15.17.21.27.37.66.75,1.33,1.11,2,.12.23.26.44.44.62.31.31.51.69.62,1.1.19.69.5,1.32.86,1.93.1.17.18.35.25.53.33.78.66,1.56.98,2.35.09.21.18.42.24.63.24.85.61,1.63,1.02,2.4.58,1.1,1.15,2.21,1.55,3.39.68,2.01,1.32,4.04,1.81,6.1.03.14.1.26.16.39.25,1.19.52,2.37.74,3.56.18,1,.31,2.01.47,3.01.02.14.02.29.05.42.2.74.25,1.5.3,2.27.06.87.24,1.74.26,2.61.05,1.58.26,3.16.17,4.75-.08,1.3-.19,2.59-.33,3.88-.11,1.04-.29,2.07-.43,3.1-.08.59-.15,1.18-.22,1.76-.21.97-.43,1.93-.63,2.9-.59,2.83-1.4,5.59-2.33,8.32-.58,1.71-1.27,3.39-1.96,5.06-.1.23-.16.48-.25.72-.27.53-.55,1.05-.8,1.58-1.83,3.86-4,7.53-6.46,11.02-.52.74-1.12,1.42-1.56,2.21-.45.36-.73.86-1.09,1.29-.86,1.05-1.74,2.09-2.64,3.1-2.46,2.77-5.31,5.09-8.26,7.31-2.9,2.18-5.97,4.11-9.17,5.83-3.25,1.74-6.61,3.23-10.09,4.46-.64.23-1.28.46-1.92.69-.7.2-1.41.39-2.11.6-2.47.72-4.97,1.29-7.5,1.75-1.28.24-2.55.44-3.84.59-.52-.1-1,.14-1.5.16-.11,0-.22.06-.33.06-1.07,0-2.13.23-3.21.21-.9-.01-1.79.05-2.68.14-.64.07-1.3.03-1.95.03-.65,0-1.3,0-1.95,0-.28,0-.57-.02-.84.08-.03,0-.06.03-.08.02-.75-.11-1.5.04-2.25-.03-.14-.01-.28-.07-.42-.05-1.97.24-3.95.09-5.92.13-1.61.03-3.22,0-4.83.03-.31,0-.61.09-.92.14-.27-.22-.59-.15-.9-.12-.14.01-.27.07-.41.1-.4.08-.77-.22-1.17-.08-.36.12-.72.13-1.09.03-.08-.02-.17-.04-.25-.03-1.92.19-3.85.07-5.77.11-1.1.02-2.21-.01-3.31.02-.53.02-1.05.07-1.59.02-.38-.04-.78.08-1.17.13-.07-.04-.15-.12-.22-.12-.79,0-1.58-.09-2.36.06-.17.03-.34.07-.5.05-.84-.11-1.68.04-2.53.02-.62-.02-1.23.02-1.85.14-.63.12-1.29.08-1.93.19-.28.05-.56.01-.84-.07-.33-.1-.67-.08-1,0-.25.05-.51.12-.75.08-.62-.11-1.23-.04-1.84,0-.42.03-.84.03-1.26-.1-.3-.09-.61-.06-.92.03-.39.12-.78.11-1.17,0-.33-.1-.67-.11-1-.02-.47.13-.95.15-1.42,0-.52-.16-1,.04-1.5.12-.2-.01-.4,0-.59-.05-.5-.14-.99-.15-1.5-.01-.35.09-.73.07-1.09-.04-.36-.11-.72-.1-1.09,0-.22.06-.45.08-.67.08-.79.01-1.58,0-2.37,0-3.65,0-7.3,0-10.94,0-.22,0-.46-.04-.64.14-.84-.07-1.69.08-2.54-.09-.29-.06-.61.08-.92.09-1.73.01-3.45.04-5.18,0-.99-.02-1.97-.17-2.93-.37-2.71-.54-5.4-1.17-8.08-1.85-.6-.15-1.2-.31-1.8-.47-.48-.16-.96-.33-1.45-.46-2.02-.56-4-1.21-5.98-1.9-2.43-.85-4.83-1.77-7.21-2.76-1.78-.74-3.52-1.54-5.27-2.35-1.36-.63-2.72-1.28-4.04-1.98-1.87-.99-3.74-1.99-5.57-3.07-1.44-.85-2.87-1.71-4.28-2.59-.07-.04-.16-.05-.24-.08ZM205.55,310.82c.78-.11,1.56-.23,2.35-.31,1.44-.15,2.84-.48,4.24-.79,2.65-.59,5.24-1.38,7.8-2.29,2.59-.92,5.09-2.03,7.56-3.25.25-.12.53-.21.71-.46.87-.35,1.67-.83,2.48-1.3,2.51-1.45,4.91-3.04,7.2-4.81.2-.15.45-.26.55-.52.1-.06.21-.1.29-.17,1.67-1.28,3.23-2.67,4.75-4.11,1.31-1.25,2.59-2.54,3.86-3.84.79-.81,1.56-1.64,2.31-2.49,1.53-1.75,2.98-3.56,4.33-5.46,2.09-2.94,3.93-6.03,5.53-9.26,1.07-2.16,2.01-4.37,2.82-6.64.33-.93.69-1.85.91-2.82.11-.29.24-.58.32-.87.4-1.5.82-3,1.17-4.52.29-1.24.53-2.49.73-3.75.23-1.45.43-2.91.57-4.38.13-1.41.17-2.82.28-4.23.05-.65,0-1.3.01-1.96,0-.54-.05-1.07-.15-1.6-.43-2.32-2.87-4.45-6.05-3.57-1.2.33-2.09,1.1-2.7,2.19-.46.81-.66,1.69-.75,2.59-.12,1.21-.21,2.42-.36,3.63-.21,1.69-.47,3.36-.82,5.02-.13.63-.24,1.27-.36,1.91-.23.82-.46,1.63-.67,2.45-1.1,4.12-2.63,8.07-4.5,11.89-.78,1.6-1.65,3.16-2.56,4.69-2.16,3.6-4.63,6.98-7.42,10.12-1.72,1.93-3.64,3.64-5.66,5.25-.68.55-1.36,1.1-2.04,1.65-.31.2-.63.38-.93.59-2.25,1.61-4.59,3.09-7.04,4.38-.75.4-1.49.81-2.23,1.21-.67.3-1.34.59-2.01.9-1.87.87-3.79,1.62-5.74,2.3-2.32.81-4.68,1.48-7.08,2.02-2.01.44-4.03.83-6.07,1.09-.69.09-1.41.06-2.09.3-.06,0-.11-.01-.17,0-.59.02-1.18.04-1.78.13-.67.1-1.36.03-2.04.06-1.39.07-2.77-.18-4.15-.2-.08,0-.17,0-.25-.03-.33-.12-.67-.13-1.01-.11-.4.02-.56-.41-.89-.44-.77-.06-1.47-.33-2.2-.55-.37-.12-.77-.15-1.14-.29-.17-.06-.33-.08-.5-.05-.59-.19-1.18-.38-1.82-.36-.16,0-.33-.07-.49-.12-.74-.19-1.47-.38-2.2-.59-.39-.11-.77-.16-1.17-.14-.37.01-.73,0-1.09-.14-.24-.09-.5-.17-.74-.14-.68.08-1.26-.21-1.87-.41-.48-.16-.96-.35-1.43-.52-1.92-.68-3.78-1.51-5.62-2.37-1.05-.49-2.07-1.03-3.09-1.59-1.96-1.07-3.87-2.22-5.72-3.48-.61-.41-1.21-.83-1.82-1.24-.77-.62-1.56-1.22-2.32-1.85-1-.83-2-1.66-2.97-2.53-.69-.62-1.34-1.3-1.99-1.97-.4-.41-.84-.74-1.31-1.05-1.28-.85-2.64-.98-4.06-.58-1.31.36-2.34,1.13-2.98,2.35-.87,1.64-.67,3.28.08,4.9.07.15.23.29.23.44.02.35.22.56.45.79,1.97,1.96,3.91,3.94,6.03,5.73,1.47,1.24,2.95,2.47,4.53,3.58,3.46,2.42,7.05,4.62,10.91,6.37,2.01.91,4.06,1.73,6.13,2.5.34.13.69.26,1.07.26.14.16.33.22.52.27,2.11.62,4.22,1.24,6.38,1.68.91.19,1.82.43,2.74.52.96.1,1.89.31,2.82.52.55.12,1.1.26,1.67.2.19-.02.41-.01.59.05.33.12.67.11,1.01.12.17,0,.34,0,.51.04.78.2,1.58.18,2.36.08.65-.08,1.29-.09,1.94-.11.25,0,.51-.02.76-.03.82.05,1.64-.03,2.46.15.21.05.46.03.67-.03.34-.09.67-.09,1.01-.09.71,0,1.42,0,2.13,0,.68,0,1.37.05,2.04-.06,1.04-.17,2.09-.07,3.13-.27.38-.07.79-.08,1.17-.2ZM268.39,134.97c0,.59-.08,1.2.02,1.78.28,1.63.83,3.18,1.8,4.54,1.3,1.84,2.97,3.26,5.07,4.12,1.24.51,2.52.84,3.88.8.4-.01.79-.02,1.19,0,.66.03,1.3-.1,1.93-.26,2.92-.76,5.23-2.38,6.86-4.93.93-1.45,1.54-3.04,1.68-4.76.1-1.21.13-2.43-.15-3.64-.26-1.14-.63-2.22-1.23-3.24-.7-1.18-1.52-2.24-2.6-3.11-.98-.79-2.02-1.45-3.2-1.88-1.23-.45-2.49-.74-3.82-.67-.85.05-1.69-.02-2.53.17-3.44.77-6.01,2.68-7.69,5.77-.89,1.65-1.36,3.41-1.2,5.3Z"/>
    <path class="cls-8" d="M352.61,178.36c-.43.14-.67.5-.95.82-.09.11-.14.27-.25.34-.88.49-1.41,1.38-2.22,1.94-.23.16-.44.36-.62.57-.41.47-.84.9-1.37,1.24-.26.17-.49.37-.79.48-.53.21-.94.63-1.43.91-.49.28-1.08.41-1.48.81-.69.69-1.5,1.2-2.28,1.75-.28.2-.54.4-.85.55-.15.07-.31.14-.45.24-.44.31-.89.6-1.4.79-.15.05-.27.2-.4.3-.28.05-.56.08-.83.17-1.02.34-2.06.58-3.08.89-.08.03-.16.08-.24.09-.65.01-1.28.21-1.93.24-.86.04-1.67.21-2.47.52-.63.25-1.31.34-1.99.33-.63-.01-1.24.01-1.85.18-.13.04-.29.11-.41.08-.69-.2-1.34.03-2,.17-.25.05-.5.06-.76.06-.54-.01-1.07.02-1.6.18-.54-.25-1.11-.2-1.67-.08-.26.05-.49.07-.75,0-.56-.13-1.12-.13-1.68,0-.23.06-.44.05-.67,0-.56-.14-1.12-.14-1.68,0-.34.08-.67.09-1.01,0-.34-.09-.67-.09-1.01-.02-.55.12-1.09.2-1.67.14-.49-.05-1.02.06-1.5.2-.33.1-.62-.07-.91,0-.27.07-.51.24-.81.25-.34,0-.68.04-1.01-.05-.23-.07-.41-.18-.44-.45-.07-.5-.17-.96.1-1.47.28-.55.36-1.18.43-1.8.05-.48.16-.94.35-1.39.27-.63.45-1.28.47-1.97,0-.19.05-.39.12-.58.23-.64.47-1.27.72-1.91.15-.4.33-.78.47-1.18.19-.55.49-1.01.99-1.33.38-.25.68-.59.95-.96.33-.39.67-.76.98-1.16,1.42-1.84,2.74-3.75,3.94-5.74,1.36-2.26,2.56-4.6,3.62-7.01.12-.27.16-.54.2-.82.26-.27.38-.63.52-.97.23-.58.44-1.16.65-1.75,1.14-3.2,2.01-6.46,2.57-9.82.24-1.45.46-2.9.59-4.35.09-1.04.25-2.08.21-3.12,0-.16-.03-.34.2-.46.67.3,1.4.51,2.17.47.7.52,1.52.6,2.34.63.91.03,1.8.09,2.66.45.2.09.44.11.66.14.84.12,1.67.29,2.52.31.26,0,.51,0,.75.1.65.26,1.33.24,2.01.23,1.02-.02,2.04,0,3.06,0,.17,0,.34.01.51.06.42.12.83.12,1.26,0,.3-.08.63-.12.93-.03.72.21,1.41.06,2.09-.09.28-.06.56-.08.84-.08.54,0,1.08.02,1.6-.14.16-.05.34-.03.51-.03.62,0,1.25.03,1.85-.17.18-.06.39-.03.59-.03.4,0,.79.02,1.18-.11.1-.04.22-.04.34-.04.93,0,1.87-.03,2.8,0,.77.02,1.51-.05,2.27-.23.9-.21,1.83-.35,2.75-.42.65-.05,1.29-.1,1.92-.31.18-.06.39-.07.58-.08.51-.03,1.01-.14,1.5-.27.22-.06.43-.16.66-.17.39-.02.86-.2,1.16.01.37.26.44.8.47,1.22.05.71.27,1.39.35,2.08.09.78.26,1.56.18,2.36-.05.59,0,1.18.14,1.77.15.66.13,1.36,0,2.03-.05.31-.14.61-.14.92,0,.32-.13.61-.24.9-.17.45-.31.91-.29,1.4,0,.26-.05.5-.13.75-.16.45-.27.92-.38,1.39-.15.6-.41,1.18-.78,1.68-.34.46-.66.92-.88,1.45-.12.29-.29.55-.47.8-.32.47-.63.94-.75,1.51-.04.16-.14.3-.23.45-.13.22-.32.41-.4.65-.28.81-.74,1.52-1.14,2.26-.11.2-.19.41-.24.63-.07.31-.22.57-.37.85-.57,1.09-1.43,1.95-2.19,2.89-.62.77-1.39,1.4-1.96,2.21-.06.09-.14.18-.24.24-.51.32-.9.77-1.25,1.25-.15.2-.35.37-.55.52-.4.28-.73.62-1.01,1.02-.18.25-.41.47-.62.7Z"/>
    <path class="cls-12" d="M326.4,144.71c-.78.05-1.5-.16-2.17-.47-.24.11-.21.3-.2.46.04,1.05-.12,2.09-.21,3.12-.12,1.46-.34,2.91-.59,4.35-.56,3.35-1.43,6.62-2.57,9.82-.21.59-.41,1.17-.65,1.75-.14.34-.26.69-.52.96-.29-.38-.54-.8-.87-1.14-.47-.49-.85-1.05-1.28-1.57-.53-.63-1.11-1.2-1.42-1.98-.67-.49-.86-1.4-1.57-1.85-.44-.79-1.22-1.33-1.56-2.2-.14-.37-.42-.67-.87-.72,0-.29.09-.56.18-.83.64-2.03,1.13-4.09,1.51-6.18.25-1.36.45-2.73.6-4.11.19-1.78.38-3.55.28-5.33-.05-.99-.19-1.97-.28-2.95-.08-.9-.22-1.79-.36-2.69-.27-1.82-.66-3.62-1.11-5.4-.06-.25-.13-.49-.13-.75.36.02.62.22.66.55.04.38.26.61.5.85.36.36.74.7.93,1.2.05.13.16.24.27.33.33.28.57.63.79.99.18.29.42.53.64.79.47.56,1,1.07,1.34,1.74.2.41.56.7.83,1.07.65.89,1.36,1.73,2.04,2.59.1.13.22.27.26.43.11.43.4.73.7,1.04.45.47.97.91,1.26,1.47.36.69.97,1.17,1.35,1.82.07.12.15.24.19.37.07.23.21.41.41.52.35.18.58.45.73.8.13.3.34.52.63.66.2.1.28.27.27.49Z"/>
    <path class="cls-6" d="M311.91,155.24c.45.04.73.35.87.72.34.87,1.12,1.41,1.56,2.2.72.45.9,1.36,1.57,1.85.31.78.9,1.36,1.42,1.98.43.52.81,1.08,1.28,1.57.33.34.58.76.87,1.14-.04.28-.08.56-.2.82-1.06,2.41-2.26,4.75-3.62,7.01-1.2,1.99-2.52,3.89-3.94,5.74-.31.4-.65.77-.98,1.16-.07-.18-.13-.37-.21-.55-.07-.15-.11-.35-.23-.44-.67-.51-.95-1.32-1.49-1.92-.22-.25-.4-.54-.64-.77-.06-.06-.15-.11-.17-.19-.24-.8-1-1.19-1.4-1.87-.27-.46-.62-.87-1.03-1.22-.22-.19-.34-.45-.45-.71-.17-.4-.44-.64-.88-.68.05-.13.09-.27.17-.39.52-.74.89-1.57,1.44-2.3.34-.45.55-.99.83-1.48,1.01-1.77,1.94-3.58,2.78-5.44.87-1.94,1.61-3.92,2.3-5.93.04-.1.1-.2.15-.29Z"/>
    <path class="cls-4" d="M69.51,259.08c.13.21.21.43.19.68-.24,0-.34-.16-.42-.35-.1-.23.04-.3.23-.33Z"/>
    <path class="cls-9" d="M263.23,262.32c-.22.97-.58,1.89-.91,2.82-.81,2.27-1.75,4.49-2.82,6.64-1.6,3.23-3.44,6.32-5.53,9.26-1.35,1.89-2.8,3.71-4.33,5.46-.74.85-1.52,1.68-2.31,2.49-1.27,1.29-2.55,2.58-3.86,3.84-1.51,1.45-3.08,2.84-4.75,4.11-.09.07-.2.11-.29.17-.06-.06-.11-.18-.17-.18-.52.01-.74-.38-.94-.74-.45-.8-1.02-1.48-1.65-2.13-.12-.12-.25-.25-.32-.39-.17-.36-.44-.65-.68-.96-.4-.54-.88-1.03-1.22-1.62-.2-.34-.42-.69-.71-.94-.4-.36-.53-.78-.48-1.29.68-.55,1.36-1.1,2.04-1.65,2.01-1.61,3.94-3.32,5.66-5.25,2.79-3.14,5.26-6.52,7.42-10.12.92-1.53,1.78-3.09,2.56-4.69,1.86-3.82,3.4-7.77,4.5-11.89.22-.82.45-1.64.67-2.45.28,0,.57-.05.77.24.65.99,1.51,1.82,2.13,2.85.32.53.71,1.02,1.18,1.44.21.19.37.43.55.64.39.46.74.93.98,1.48.07.15.2.27.31.4.46.5.87,1.03,1.21,1.62.22.39.5.76.99.86Z"/>
    <path class="cls-6" d="M268.39,134.97c-.16-1.89.31-3.66,1.2-5.3,1.67-3.09,4.25-5,7.69-5.77.85-.19,1.69-.12,2.53-.17,1.33-.07,2.58.22,3.82.67,1.18.43,2.23,1.09,3.2,1.88,1.07.87,1.9,1.92,2.6,3.11.6,1.01.96,2.1,1.23,3.24.28,1.2.24,2.43.15,3.64-.14,1.72-.75,3.31-1.68,4.76-1.63,2.55-3.95,4.17-6.86,4.93-.62.16-1.27.29-1.93.26-.4-.02-.79-.01-1.19,0-1.36.04-2.64-.3-3.88-.8-2.11-.86-3.77-2.28-5.07-4.12-.96-1.36-1.52-2.91-1.8-4.54-.1-.58-.02-1.19-.02-1.78Z"/>
    <path class="cls-17" d="M171.66,307.96c-.38,0-.73-.13-1.07-.26-2.07-.77-4.11-1.59-6.13-2.5-3.86-1.74-7.45-3.95-10.91-6.37-1.58-1.1-3.06-2.33-4.53-3.58-2.13-1.79-4.07-3.78-6.03-5.73-.22-.22-.42-.44-.45-.79,0-.15-.16-.29-.23-.44-.75-1.62-.95-3.25-.08-4.9.64-1.22,1.67-1.99,2.98-2.35,1.43-.39,2.78-.26,4.06.58.48.32.92.64,1.31,1.05.65.67,1.3,1.35,1.99,1.97.97.87,1.97,1.7,2.97,2.53.76.63,1.54,1.23,2.32,1.85-.04.07-.12.16-.1.21.13.34.28.67.52.96.34.41.65.85.99,1.26.77.93,1.43,1.95,2.26,2.84.11.12.22.26.29.41.15.35.39.62.66.87.37.35.69.75.85,1.24.07.2.21.33.35.47.56.56,1.05,1.18,1.47,1.84.06.09.13.2.22.25.43.27.62.73.88,1.12.13.19.21.42.37.56.47.43.78.97,1.12,1.48.25.38.49.76.92.97.19.09.25.3.36.46.44.65.85,1.33,1.39,1.91.27.29.63.54.69.94.06.43.53.6.55,1.02,0,.03,0,.06,0,.08Z"/>
    <path class="cls-14" d="M171.66,307.96s0-.06,0-.08c-.03-.42-.49-.59-.55-1.02-.06-.4-.42-.65-.69-.94-.54-.58-.95-1.26-1.39-1.91-.11-.16-.17-.37-.36-.46-.43-.21-.66-.6-.92-.97-.35-.51-.66-1.05-1.12-1.48-.16-.15-.24-.38-.37-.56-.27-.39-.45-.85-.88-1.12-.09-.06-.16-.16-.22-.25-.43-.67-.91-1.28-1.47-1.84-.14-.14-.28-.27-.35-.47-.17-.49-.48-.89-.85-1.24-.27-.25-.51-.53-.66-.87-.07-.15-.17-.29-.29-.41-.83-.89-1.49-1.91-2.26-2.84-.34-.41-.65-.85-.99-1.26-.24-.29-.39-.62-.52-.96-.02-.05.06-.14.1-.21.61.41,1.21.83,1.82,1.24,1.85,1.26,3.76,2.41,5.72,3.48,1.02.56,2.04,1.1,3.09,1.59,1.84.86,3.7,1.69,5.62,2.37.48.17.95.36,1.43.52.61.2,1.19.49,1.87.41.24-.03.51.05.74.14.36.13.72.15,1.09.14.4-.01.79.04,1.17.14.73.2,1.47.39,2.2.59.16.04.33.12.49.12.64-.02,1.23.17,1.82.36-.03.43.08.78.38,1.15.47.58,1.01,1.12,1.4,1.79.35.6.78,1.17,1.19,1.74.31.43.66.85,1.06,1.19.25.21.46.42.54.72.09.33.27.55.56.7.26.14.42.36.56.62.44.82,1.04,1.53,1.58,2.28.16.22.31.47.57.61.13.07.16.23.17.37-.25,0-.51.02-.76.03-.65.02-1.29.03-1.94.11-.78.1-1.58.12-2.36-.08-.16-.04-.34-.04-.51-.04-.34,0-.67,0-1.01-.12-.18-.06-.39-.07-.59-.05-.57.05-1.13-.08-1.67-.2-.93-.21-1.86-.41-2.82-.52-.92-.1-1.83-.34-2.74-.52-2.16-.45-4.27-1.06-6.38-1.68-.19-.06-.38-.12-.52-.27Z"/>
    <path class="cls-11" d="M228.2,303.73c-.18.24-.45.33-.71.46-2.46,1.21-4.97,2.33-7.56,3.25-2.56.91-5.15,1.7-7.8,2.29-1.4.31-2.81.64-4.24.79-.78.08-1.56.21-2.35.31-.03-.08-.03-.18-.08-.24-.51-.57-1.03-1.13-1.31-1.85-.04-.1-.13-.19-.21-.27-.58-.58-.9-1.37-1.54-1.91-.04-.03-.07-.09-.09-.14-.17-.47-.53-.8-.87-1.13-.2-.2-.38-.41-.54-.64-.42-.6-.84-1.2-1.35-1.73-.37-.38-.55-.76-.48-1.28.67-.24,1.39-.21,2.09-.3,2.05-.25,4.06-.64,6.07-1.09,2.4-.53,4.76-1.2,7.08-2.02,1.95-.68,3.86-1.43,5.74-2.3.67-.31,1.34-.6,2.01-.9-.03.46.24.8.45,1.17.16.27.38.5.52.77.4.76.94,1.41,1.55,2,.22.22.42.45.6.71.42.6.87,1.18,1.35,1.74.29.34.6.66.82,1.07.18.34.37.7.72.93.07.05.08.2.12.3Z"/>
    <path class="cls-13" d="M263.23,262.32c-.49-.1-.77-.48-.99-.86-.34-.59-.75-1.13-1.21-1.62-.12-.12-.25-.25-.31-.4-.24-.55-.6-1.02-.98-1.48-.18-.21-.34-.45-.55-.64-.47-.42-.86-.91-1.18-1.44-.62-1.02-1.47-1.86-2.13-2.85-.19-.29-.49-.24-.77-.24.12-.64.23-1.28.36-1.91.35-1.66.61-3.34.82-5.02.15-1.21.24-2.42.36-3.63.09-.9.3-1.78.75-2.59.62-1.09,1.51-1.86,2.7-2.19,3.18-.88,5.62,1.25,6.05,3.57.1.53.16,1.06.15,1.6-.01.65.04,1.31-.01,1.96-.11,1.41-.15,2.82-.28,4.23-.14,1.47-.34,2.92-.57,4.38-.2,1.26-.44,2.51-.73,3.75-.35,1.52-.77,3.02-1.17,4.52-.08.3-.21.58-.32.87Z"/>
    <path class="cls-2" d="M199.08,301.63c-.07.52.11.9.48,1.28.5.52.93,1.13,1.35,1.73.17.23.34.45.54.64.34.34.7.67.87,1.13.02.05.05.11.09.14.64.53.96,1.32,1.54,1.91.08.08.17.17.21.27.29.73.81,1.28,1.31,1.85.05.06.05.16.08.24-.38.12-.78.12-1.17.2-1.03.2-2.09.1-3.13.27-.67.11-1.36.05-2.04.06-.71,0-1.42,0-2.13,0-.34,0-.68,0-1.01.09-.21.06-.46.08-.67.03-.81-.19-1.64-.1-2.46-.15-.01-.14-.04-.3-.17-.37-.26-.14-.41-.39-.57-.61-.54-.75-1.14-1.46-1.58-2.28-.14-.26-.29-.48-.56-.62-.29-.15-.47-.37-.56-.7-.08-.3-.29-.51-.54-.72-.4-.34-.74-.77-1.06-1.19-.42-.57-.84-1.14-1.19-1.74-.39-.67-.92-1.2-1.4-1.79-.3-.37-.4-.72-.38-1.15.17-.03.33-.01.5.05.37.14.78.18,1.14.29.72.23,1.43.49,2.2.55.33.03.49.46.89.44.34-.02.68,0,1.01.11.08.03.17.03.25.03,1.39.02,2.76.27,4.15.2.68-.03,1.37.03,2.04-.06.59-.08,1.18-.1,1.78-.13.06,0,.11,0,.17,0Z"/>
    <path class="cls-16" d="M228.2,303.73c-.04-.1-.05-.26-.12-.3-.35-.23-.55-.59-.72-.93-.22-.41-.53-.73-.82-1.07-.48-.56-.93-1.14-1.35-1.74-.18-.26-.38-.49-.6-.71-.61-.59-1.15-1.24-1.55-2-.14-.27-.37-.5-.52-.77-.21-.36-.48-.71-.45-1.17.74-.4,1.49-.81,2.23-1.21,2.45-1.29,4.78-2.78,7.04-4.38.3-.21.62-.39.93-.59-.04.51.08.92.48,1.29.29.26.51.61.71.94.35.59.82,1.07,1.22,1.62.24.32.51.6.68.96.07.15.2.27.32.39.63.65,1.2,1.34,1.65,2.13.2.36.42.75.94.74.05,0,.11.12.17.18-.1.26-.35.36-.55.52-2.29,1.76-4.69,3.36-7.2,4.81-.81.47-1.61.95-2.48,1.3Z"/>
  </g>
</svg>